<svg xmlns="http://www.w3.org/2000/svg" viewBox="0 0 512 200" preserveAspectRatio="xMidYMid"><path d="M351.14 17.697l-.114-1.097-1.777.152.112 1.096 1.778-.15zm11.95 28.738l.037.605 1.248-.113c-.038-.378.113-.983.378-1.74l-.114-1.096c-.53.04-1.06.833-1.55 2.345zm-46.626 36.188c-.075-1.02-3.252-4.99-9.53-11.987-.112-1.285 2.043-3.214 6.467-5.747l12.63-11.005c2.837-3.593 4.5-9.416 4.993-17.508l-.152-1.853c-.49-5.596-4.536-10.096-12.212-13.537-4.538-3.063-12.706-4.765-24.504-5.067-9.756.832-22.5 4.31-38.192 10.474-4.31 3.1-9.226 6.202-14.747 9.302l.075.946c.34-.038.87-.227 1.475-.643.643-.077 1.02.226 1.06.83l.944-.49.453-.04.038.417c.04.492-3.365 3.177-10.247 7.98l.53.982-.454.037-1.136-.416c.038.34-.453.568-1.4.644l.04.416 1.096 1.36c-.34.04-.87-.112-1.588-.377-1.59.15-3.14.983-4.69 2.57l.644-2.797c2.306-9.945 3.894-18.756 4.726-26.394l-.113-.492c-1.59-1.02-3.14-2.458-4.577-4.273.038-1.172.038-1.852 0-2.004l-.113-.416-.454.114c-4.99 7.488-14.596 20.27-28.852 38.344-10.852 12.857-16.45 20.004-16.79 21.44-4.423 4.576-6.54 7.337-6.314 8.282-1.172.756-1.664 1.512-1.475 2.344-.34.076-.567-.037-.643-.378-1.89 3.063-4.69 5.03-8.432 5.9l-3.933.907c-.53.112-.794.49-.756 1.133l.114.492 1.475-.34.113.415-3.328 1.286-5.9 1.36-3.1.19c-.454.454 2.458-.037 1.324.227l-3.858.908c-2.345.53-3.63.34-3.857-.604l-.454.113c.077.415.114.718.04.982l-.228-.945-3.1.718c-.228-1.436-4.425-6.655-12.555-15.654-.15-1.74 2.722-4.273 8.584-7.562l16.563-14.56c3.706-4.763 5.9-12.402 6.618-22.914l-.226-2.458c-.643-7.41-6.013-13.386-16.11-18-5.974-4.045-16.713-6.2-32.216-6.54-12.857 1.096-29.647 5.67-50.293 13.65-5.672 4.12-12.138 8.205-19.398 12.25l.113 1.287c.492-.038 1.134-.302 1.928-.756.832-.076 1.286.302 1.362 1.06l1.285-.72.643-.038.038.604c.038.605-4.462 4.122-13.575 10.55l.72 1.135-.643.037-1.4-.492c.038.378-.605.643-1.928.756l.074.682 1.513 1.664c-.49.038-1.172-.114-2.042-.416-2.95.265-5.823 2.382-8.66 6.39l.72 1.135c2.457-2.27 3.894-3.403 4.31-3.44l.15 1.852c-.415.038-1.058.302-1.927.756l1.55 2.345c2.987-3.215 6.277-5.975 9.87-8.282 1.777.454 2.722 1.02 2.76 1.626l1.36-.113c9.757-7.224 19.4-12.442 28.967-15.656l.113 1.285c-1.777 2.646-2.987 4.008-3.63 4.083.076.908.378 1.702.945 2.383.152 1.626-4.197 12.592-13.008 32.86-20.003 47.116-36.793 81.98-50.443 104.518.037.453.302 1.058.794 1.815 3.365-.795 5.483-1.627 6.39-2.422l.72-.075.112 1.286 1.248-.115 1.286-.718c.038.378.454.567 1.323.49l.114 1.287c.112 1.248-.606 3.138-2.12 5.748-1.36 1.55-2.835 4.802-4.385 9.756l.037.605 1.248-.114c5.446-6.09 9.567-12.064 12.403-17.887 15.882-4.65 27.983-9.226 36.377-13.726 8.433-.72 14.86-2.95 19.248-6.618l-.076-.68-3.176.944-.72.076-.075-.68c6.203-.946 10.476-2.308 12.858-4.198 12.063-9.303 21.176-15.882 27.34-19.777 12.667-9.302 20.91-18.378 24.654-27.188.68-.15 1.36-.303 2.118-.492 1.777-.075 2.76-.113 3.025-.19-.076-.34.076-.528.416-.604 2.837-.3 1.476.19 3.29-.226l4.765-1.096c-.302.075-.416.227-.34.53l.718-.455c-.15 0-.264-.037-.378-.075l.794-.19-.38.228c.53.075 1.098.037 1.74-.114l.34 1.4-21.666 34.448-4.803 6.012-2.343 7.865.454-.113 2.345-.983-.756 3.064.226.907.642.795c-.302.076-.415.265-.34.605l.114.492.983-.227c1.437-1.248 2.042-2.382 1.815-3.403 1.55.264 2.57.378 3.1.227l.114.49c-.945.227-1.437.983-1.513 2.27l.115.49.53-.113c7.865-8.584 27.15-37.965 42.616-57.893-.49-2.155 7.563-5.143 24.2-9l.53-.113c.606 2.61-.68 8.925-3.856 18.946-2.042 6.05-3.025 9.378-2.874 9.907-2.647 8.054-3.895 12.403-3.744 13.084l-5.9 19.322c-3.818 9.907-6.73 20.306-8.77 31.272.34-.076.868-.038 1.625.15l.832-.718c.076.34.303.454.643.378l-.34-1.4 2.57-.074c.757-.19 1.4-1.135 1.93-2.874-.114-2.61.416-4.008 1.588-4.31 1.588-6.202 2.57-9.303 2.912-9.417 1.474-6.163 2.57-9.68 3.29-10.55 2.23-8.016 3.856-12.138 4.915-12.403l.227.984-1.626 4.197c-2.835 12.592-5.71 22.537-8.62 29.835l.832 3.63.53-.113c7.032-15.126 17.166-45.074 30.363-89.846.38-3.932 2.27-6.995 5.635-9.15l-.757-.794-.113-.416c1.513-.34 2.57-.945 3.176-1.777-.075-.34-1.4-.832-3.97-1.513l6.58-28.21c1.436-1.285 2.268-1.965 2.533-1.965l.113 1.437c-.34.037-.87.226-1.475.642l1.248 1.778c2.268-2.458 4.726-4.576 7.41-6.353 1.362.377 2.043.83 2.12 1.285l.982-.076c7.487-5.484 14.823-9.417 22.045-11.8l.076.946c-1.324 2.004-2.232 3.025-2.724 3.063.076.68.265 1.285.605 1.814.115 1.248-3.137 9.567-9.792 24.995-15.202 35.733-27.945 62.165-38.306 79.333.038.34.265.794.68 1.4 2.534-.606 4.16-1.25 4.803-1.854l.454-.04.075.947 1.058-.076.946-.49c.036.264.377.378 1.02.34l.075 1.02c.076.908-.453 2.345-1.626 4.31-1.097 1.174-2.232 3.632-3.442 7.375l.038.492.983-.076c4.12-4.612 7.26-9.15 9.415-13.612 12.062-3.554 21.25-6.995 27.604-10.4 6.465-.566 11.343-2.23 14.67-5.028l-.037-.49-2.458.717-.53.038-.037-.492c4.69-.68 7.98-1.74 9.756-3.138 9.15-7.034 16.07-12.063 20.76-15.012 14.596-10.626 21.402-20.836 20.57-30.63zm-2.495.643l.34 3.82c-.455.945-.946 1.436-1.4 1.474l-.567-6.504c1.058.378 1.588.756 1.626 1.21zM27.64 52.486l-.643.037-.114-1.172 2.61-.226.037.605c-.416.037-1.06.264-1.89.756zM14.9 179.956c-1.514-.68-2.875-.945-4.047-.832l-.152-1.853c-.074-.717.342-1.21 1.25-1.398.83-.075 1.323.53 1.398 1.74 2.194-2.685 3.404-4.046 3.63-4.084l1.4.567c-.454 3.782-1.626 5.71-3.48 5.86zM151.066 37.51c-.643.077-1.93-1.927-3.782-5.898l-.113-1.172c1.21-.113 2.458 1.853 3.78 5.9l.115 1.17zm-1.816-14.103l-.528 1.248-18.49-7.714c12.326.417 18.68 2.572 19.02 6.467zM71.167 90.45l-2.61.228-.113-1.173 2.61-.226.113 1.17zm-2.118-40.27l.643-.04.152 1.854c-.605.038-1.4.945-2.382 2.685l-.114-1.287c1.173-1.4 1.778-2.458 1.702-3.214zm-5.483 12.93l.227 2.46-.643.037-.228-2.458.643-.04zm-2.874 4.615l1.25-.114c-.114 2.043-.68 3.14-1.702 3.215l-.643.038c.794-1.36 1.172-2.42 1.096-3.138zm-2.154 6.428l.718-.076.038.605-1.172 1.967-1.248.112-.038-.605c1.248-.113 1.815-.756 1.702-2.004zm-2.118 5.786l-.378 3.1-.643.037-.264-3.063 1.285-.075zM35.205 140.25c-.832 4.235-1.74 6.39-2.685 6.466l-.038-.605c-.227-2.08.68-4.046 2.723-5.86zm-3.895 8.432l.038.605c.075.83-.303 1.323-1.135 1.36l-.037-.605c-.076-.718.302-1.172 1.134-1.36zm-1.134 17.508l1.966-.19.075.682c-.49.037-1.134.302-1.928.756l-1.25.113c-.075-.642.34-1.134 1.135-1.36zm55.964-17.28c-11.042 5.444-17.546 9.15-19.474 11.078-11.95 4.16-17.886 6.73-17.773 7.752-10.625 4.198-17.62 7.3-20.986 9.227-.794.075-1.93-.228-3.44-.91-.19-2.154.793-3.893 2.872-5.292 1.852-.152 3.63.113 5.33.83 1.968-1.02 5.41-2.154 10.287-3.364l-.114-1.286-3.932.34c.492-.68 4.273-2.457 11.382-5.33l1.967-.19.037.605c-3.366.302-5.22 1.286-5.635 3.063.076.794.53 1.134 1.362 1.06 2.533-1.59 3.78-2.535 3.743-2.8 4.803-.907 18.075-7.865 39.818-20.835l.114 1.173c.037.567-1.816 2.155-5.56 4.878zm-33.352 10.965c3.177-.265 5.9-1.55 8.168-3.78.907-.077 1.4.263 1.437 1.057-1.55.152-4.538 1.437-8.886 3.933l-.643.038-.076-1.248zm53.81-41.33L89.92 131.743c-12.402 8.13-19.057 12.213-20.002 12.29-19.74 10.852-32.028 16.486-36.793 16.902l-.718.075c.605-2.23 9.377-20.19 26.394-53.997 7.488-.643 19.286-4.12 35.357-10.474l3.932-.342c8.13-.718 14.217.87 18.226 4.652l.226 2.457c-3.025 8.698-6.352 13.765-9.945 15.24zM74 100.206l2.685-.227.037.605-2.684.227-.038-.605zm37.7-6.39l1.967-.19c1.814.87 2.76 1.626 2.835 2.307l.037.605c-1.74.15-3.365-.757-4.84-2.724zm5.332-30.365c-1.74 2.08-6.504 5.634-14.294 10.625-2.57.227-12.138 3.933-28.7 11.193-.832-.378-1.702-.53-2.647-.453l-.114-1.173c-.19-2.382.87-5.37 3.213-9C75.78 67.84 77.178 63.945 78.73 63l13.8-31.045c-.15-1.93 2.8-3.404 8.85-4.425l1.965-.19.152 1.78c5.936-.91 9.642-1.438 11.08-1.552 10.965-.945 16.675 1.286 17.13 6.618l1.247-.114-.265-3.138 1.36-.114c3.214 1.778 4.954 3.933 5.18 6.466.152 1.74-.793 3.895-2.798 6.467-.83.076-1.323-.53-1.4-1.74l-1.36.115-.302 3.78c-5.56 8.32-9.605 12.593-12.1 12.82-2.27 3.14-3.67 4.69-4.236 4.727zm8.47 21.743c-1.134-.757-2.042-1.097-2.722-1.06l-.152-1.852 1.248-.113 2.76 1.626c.114.87-.264 1.323-1.134 1.4zm8.773 10.398c1.21.492 1.93 1.02 2.08 1.513l-.605.15.038.04c-.114 0-.265.037-.38.075l-.906.72-.227-2.497zm.832 5.22l-.114-.493 1.588-.378.113.492-1.588.378zm3.818 4.272c1.626-.265 2.42-.378 5.445-1.06l.114.493-5.748 1.323c.075-.264.15-.528.188-.755zm5.597 2.382c-2.42.227-1.89-.076-5.748.794l-.114-.49 4.803-1.55 2.307-.53.226.907c-1.022.227-.265.227-1.475.87zm5.105-1.21c-.568.15-1.02-.113-1.286-.756l1.475-.34c.64-.15 1.057.114 1.21.757l-1.4.34zm13.84-14.9l-.114-.49 2.382-.567.227.907-2.496.15zm14.785 90.68c.15-.682.19-1.173.113-1.514l.53-.113c.642-.15 1.02.076 1.172.68l.113.492-1.928.454zm10.36-86.784l-1.058-.19c-1.702.682-3.14 1.173-4.31 1.438l-.984.228c-.567.15-1.02-.076-1.248-.68l6.92-1.59 2.27-1.058.755.87c-1.097.227-1.89.567-2.344.983zm5.332-1.702l-.113-.49c.34-.076.794-.34 1.286-.832l4.915-1.134.114.49c-2.61.644-4.69 1.287-6.203 1.967zm.757-9.944c-.34.076-.794.38-1.362.832-.075-.34-.756-.34-2.042-.037-.226-.945 3.404-2.268 10.93-4.008l1.057-.227.227.908c-5.294 1.55-8.243 2.42-8.81 2.533zm13.235-14.293c-.53 6.012-2.648 9.416-6.392 10.285l-.113-.49-3.328 1.284-1.475.34c-.756.19-1.437.152-2.042-.037l-.302-1.324c-.114-.49 4.69-7.146 14.445-19.927l1.134.19c.416 1.74-.227 4.953-1.928 9.68zm23.405-20.042l-.453.04-.076-.946 1.966-.19.038.492c-.34.076-.832.265-1.475.605zm-9.642 96.843c-1.135-.53-2.156-.756-3.025-.68l-.114-1.438c-.038-.49.265-.832.908-1.02.643-.076 1.02.377 1.096 1.36 1.626-2.08 2.534-3.138 2.723-3.138l1.022.416c-.378 2.874-1.248 4.386-2.61 4.5zM325.086 37.965c-.492.038-1.437-1.475-2.912-4.538l-.075-.945c.944-.076 1.927 1.4 2.91 4.424l.076 1.06zm-1.36-10.815l-.455.983-13.99-5.86c9.34.302 14.18 1.928 14.445 4.877zm-59.33 50.936l-1.968.19-.075-.947 1.966-.152.075.908zm-1.627-30.592l.528-.038.113 1.437c-.49.038-1.095.72-1.814 2.042l-.075-.945c.87-1.097 1.286-1.93 1.25-2.496zm-4.123 9.832l.15 1.853-.528.037-.153-1.853.53-.038zm-2.23 3.517l.982-.076c-.114 1.588-.53 2.42-1.25 2.496l-.528.037c.567-1.058.832-1.89.794-2.457zm-1.59 4.84l.455-.038.037.49-.87 1.514-.984.075-.037-.492c1.02-.076 1.473-.605 1.398-1.55zm-1.587 4.386l-.34 2.42-.455.037-.19-2.382.985-.076zm-16.147 45.867c-.643 3.177-1.323 4.803-2.042 4.878l-.037-.416c-.113-1.59.567-3.1 2.08-4.463zm-2.987 6.39l.037.417c.076.68-.226 1.06-.907 1.096l-.038-.49c-.038-.493.265-.833.908-1.022zm-.832 13.31l1.512-.112.038.49c-.34.04-.87.228-1.475.57l-.984.074c-.038-.53.265-.87.908-1.022zm42.465-13.12c-8.32 4.122-13.274 6.92-14.824 8.357-9.076 3.176-13.575 5.143-13.5 5.937-8.054 3.215-13.348 5.52-15.844 6.996-.605.038-1.475-.19-2.61-.718-.15-1.626.606-2.95 2.194-3.933 1.437-.113 2.798.076 4.046.605 1.513-.756 4.122-1.588 7.828-2.533l-.076-.946-3.1.228c.378-.53 3.29-1.89 8.697-4.084l1.513-.113.038.417c-2.57.227-4.007.983-4.31 2.344.038.606.416.91 1.06.833 1.89-1.248 2.797-1.966 2.797-2.193 3.63-.643 13.69-5.937 30.214-15.844l.076.945c.038.417-1.36 1.627-4.197 3.707zm-25.336 8.32c2.457-.228 4.537-1.173 6.277-2.837.643-.076 1.022.227 1.06.832-1.135.113-3.366 1.06-6.732 2.874l-.53.038-.074-.908zm40.914-31.424l-12.592 10.134c-9.416 6.163-14.52 9.264-15.315 9.34-14.973 8.243-24.275 12.516-27.943 12.82l-.53.037c.454-1.702 7.148-15.353 20.08-40.99 5.634-.492 14.558-3.177 26.81-8.017l3.063-.265c6.163-.53 10.777.68 13.802 3.592l.15 1.853c-2.306 6.504-4.8 10.323-7.524 11.496zm-24.73-13.916l1.966-.19.038.493-1.966.19-.038-.493zm28.625-4.878l1.513-.114c1.4.68 2.117 1.286 2.155 1.777l.04.416c-1.325.112-2.573-.568-3.707-2.08zm3.97-23.03c-1.323 1.59-4.915 4.31-10.776 8.093-1.967.19-9.227 2.987-21.78 8.432-.606-.227-1.287-.302-2.006-.264l-.074-.945c-.15-1.815.643-4.084 2.382-6.844.983-5.217 2.08-8.13 3.214-8.81l10.55-23.596c-.113-1.4 2.118-2.533 6.656-3.403l1.512-.112.114 1.437c4.462-.72 7.26-1.135 8.394-1.248 8.32-.72 12.668.945 13.008 5.03l.983-.077-.19-2.27.984-.074c2.42 1.323 3.705 2.912 3.857 4.802.114 1.362-.567 3.025-2.004 4.954-.642.075-1.02-.378-1.096-1.36l-.983.074-.303 2.836c-4.197 6.39-7.26 9.68-9.19 9.832-1.7 2.307-2.76 3.48-3.25 3.517zm4.425 15.73l-.114-1.436.983-.075 2.118 1.284c.038.605-.265.946-.908 1.02-.907-.566-1.588-.83-2.08-.793zm-176.024 91.85l-.983.228-.83.718c.15.605.528.832 1.17.68.644-.15.91-.528.758-1.133l-.114-.492zm-3.743-7.448l.114.49c.643-.15.907-.528.756-1.133l-.113-.493c-.605.152-.87.53-.756 1.135zm26.62-63.34l1.136-.263-.227-.984-1.135.264.226.983zM493.586 123.2c-11.496 2.57-12.933 2.117-15.353 2.306l.076.946 1.06-.076.566-.038-.15-.113 1.246-.492c11.382-1.247 12.706-.793 12.592-2.08l-.037-.452zm-61.902 8.205l.076.946h.15l-.075-.947h-.152zm-7.11-24.92l-1.02-.34c-.832 2.232-1.248 3.555-1.21 3.933l.038.416c.795-.038 1.514-1.4 2.194-4.008zm71.356 16.526l.075.944 1.663.302-.075-.945-1.664-.3zm-78.238 9.565l-2.57-.302-.455.983.038.492 15.314-1.286-.076-.945-12.252 1.058zm-6.958-33.54l-.037-.492-.53.038-.945.606.53.907c.718-.075 1.058-.416.982-1.058zm92.455 17.016l.718-.075c.416-.038.605-.378.567-.983l-.416-.908c-2.61.227-3.82.34-5.938 1.513l-.038-.49-3.138.3c-.076-.944-.34-1.436-.756-1.398l-1.626.15c-1.89.15-2.8.076-3.744.794-.038-.34-.15-.49-.34-.49l-1.815.15-1.06.605c-.037-.34-.15-.493-.34-.493l-.642.568-.038-.492-2.534-.19-.604.04.076.944 1.286.34 1.21-.075c.416.265.87.34 1.4.302l1.058-.53.037.417c-5.936 1.476-5.9 1.21-9.983 1.892-.453-.303-.794-.454-1.02-.416l-.076.075c-.454-.037-.72-.34-.756-.83l2.117-.265c.15 0 .265.15 1.437.378 1.702-.832 1.777-1.173 2.685-1.248l-.076-.946c-5.822 1.134-3.478.378-10.776 1.02l-.34.038-.076-.945c9.378-1.134 6.24-.492 9.454-1.4.038.34.15.492.34.492.378-.378.794-.567 1.286-.642l.643-.038c3.29-.265 4.387.378 10.89-1.437l.04.416 1.058-.53.983-.075c-.075-.947 1.362-1.098 1.854-1.136l-.076-1.02c-11.42 2.306-14.407 1.663-17.583 2.57l-.038-.415c-2.987.528-3.1.3-3.857.34-.227.037-.567.226-.946.604-.037-.34-.15-.492-.378-.492-.113 0-.15.038-.19.038l-9.68 1.588c-.037-.264-.15-.415-.377-.378-5.03 1.06-3.67 1.248-10.4 1.853-.303.038-.718.19-1.248.53-.038-.265-.19-.416-.53-.38l-4.12.342-2.76.68c-.04-.264-.19-.415-.53-.378-1.55.416-2.912.68-4.01.757h-.075c-.68.075.34-.19-.19-.416l-.83.49c-1.21.115-.568-.074-4.727-.037-7.298.91-6.504 1.022-7.298 1.06l-2.723-.19c.037.266-.114.455-.417.455-3.1-.416-4.69-.908-4.727-1.475.416-2.95 1.135-4.462 2.156-4.538l.53-.037-.455.983.53-.038c.983-.53 1.437-1.02 1.4-1.475l-.077-1.02-.983.075-.076-.945c-.074-.72.04-1.362.304-1.89l2.23-3.593.077.945 1.06-.076-.076-.944-.605-.87c.793-.68 1.398-1.06 1.89-1.096l-.038-.492-1.437.114-.114-1.437c2.875-5.975 4.236-9.454 4.16-10.437l1.022.416c.643-.038.945-.416.907-1.097l-.984.076-.038-.416c-.075-.72.076-1.4.378-2.004 1.55-1.626 2.27-3.252 2.118-4.954.303-.04.454.113.492.453 1.323-.756 2.344-2.76 3.1-6.088 2.345-4.235 5.672-12.705 10.02-25.373 8.32-22.386 7.98-24.768 9.152-30.062l-.983.075c.075.68-.076 1.324-.378 1.93-.68-.266-1.21-.417-1.588-.38l-.04-.415c-.15-1.93.644-4.235 2.46-6.958l.452-.038.832 3.252.983-.075c-.037-.226.227-1.512.757-3.894-.038-.492-.416-.794-1.173-.832l-.944.605c-.075-.682-.038-2.46.076-5.295l-.492.038c-.832-.832-1.248-1.513-1.286-2.08l-5.407.53c-.038-.38-.227-.946-.605-1.664-.038-.493 1.172-.985 3.668-1.476l1.097.416 1.02-.605c.038.34.227.49.605.454l1.02-.606c.04.34.228.49.607.453l.49-.037-.076-1.097c-.756.076-2.76.076-5.936-.038l-1.02.68-.04-.604c-25.372 2.08-39.78 3.253-43.22 3.593-.454.038-2.23 0-5.37-.076.038.416-.34.643-1.096.72l-1.097-.493-3.706.946c-.87.075-2.345.037-4.387-.19-.567.454-1.248.72-2.08.795-.454.037 5.407-.303 10.852-.68-.567.453-1.436.717-2.646.83-.833.077-1.552-.037-2.157-.377-.832.378-3.516.983-8.016 1.89l-1.097-.415-17.697 2.722c-.68-.34-1.475-.454-2.382-.378-.945.076-2.533.416-4.726 1.02l-8.546 3.555.643 1.06c.417-.04 1.022-.265 1.74-.68l3.026.263-.38 2.836c-2.797 1.25-4.423 3.102-4.877 5.447-4.198 1.852-6.278 3.176-6.278 3.97l.038.492.643-.04 1.134-.604 1.324 1.588.19 2.193c.075.68-6.996 15.542-21.138 44.583-12.252 27.982-18.68 43.297-19.285 46.057-4.197 1.172-6.618 2.874-7.336 5.143.077.718 1.324 1.21 3.744 1.4l.114 1.095-1.097 1.815.19 2.194c.114 1.134 3.177 2.004 9.19 2.61-.04-.38.15-.606.566-.644.114 1.36-.264 4.008-1.134 7.94l.643-.037c2.495-3.403 3.668-5.748 3.554-7.033l.53-.038c.604-.038 1.247.643 2.003 2.117-.756.302-3.403 6.314-7.94 18.075l.642 1.058.643-.037c5.558-14.067 9.037-21.857 10.474-23.332 7.298-.643 19.928-1.928 37.852-3.857l1.134-.68c.038.378.265.567.68.53l1.173-.114 1.136-.68c.037.377.264.566.68.528l13.575-1.17c3.594-.303 5.295-1.4 5.144-3.253-.038-.49 2.08-1.06 6.353-1.664.416-.038 1.02.076 1.853.34-.038-.34 2.117-.68 6.428-1.058.114-2.27.832-3.48 2.118-3.592l-.114-1.097c-1.21.113-2.57.416-4.16.945-2.835-.15-4.65-.377-5.407-.642-.756.416-1.323.643-1.74.68l-9.453.304-1.134.605c-.038-.34-.265-.492-.68-.454l-.53.038-1.21.606c-.038-.34-1.02-.605-2.988-.87l-1.21.718-2.344.19-.038-.606c12.176-1.323 18.19-2.987 18.037-4.953.795-.076 1.21.302 1.286 1.097l3.556-.908-.114-1.097-29.154.794c.037.38-.152.606-.567.644l-3.554-.302c-.908.075-1.664.34-2.27.794l-1.322-.492c-3.668.303-6.39.757-8.206 1.324-2.496-.19-5.256-.152-8.32.113l-6.54.568-3.026-.34c-.15-1.928 3.592-11.42 11.306-28.436 2.232-5.748 4.273-9.34 6.24-10.7.416-.04 1.02.112 1.853.452l4.652-1.588 2.382.378c4.008-.34 8.66-1.474 13.99-3.44 1.325-.114 2.308-.038 3.026.264l3.555-.832 10.588-.907c4.5-.38 9.377-1.363 14.67-2.99l-.112-1.095c-1.965.19-2.986-.15-3.062-.946-.113-1.475-1.55-2.08-4.31-1.854l-.114-1.096 2.912-.832 7.638-.643-.114-1.096c-.302.036-1.852 0-4.726-.115l-.114-1.172 2.95-.265c.794-.075 1.134-.454 1.06-1.21-3.972.114-5.976-.075-6.014-.605-27.68 1.36-41.557 1.626-41.633.756-.416.037-.983.302-1.74.756l-.718-1.135c7.336-15.578 11.647-23.443 12.895-23.557.037.605-.265 1.588-.946 2.912l.038.49 1.172-.112c2.912-6.958 5.37-10.55 7.412-10.7 8.697-.758-1.21-1.325 17.394-4.236.757.34 1.286.49 1.664.453 7.298-1.474 17.47-3.025 30.516-4.613l-.076-1.097-6.958.643-.075-1.096c.833-.076 1.513-.34 2.08-.794l.038.605c.38-.038.908-.303 1.59-.757 1.21-.112 2.116 0 2.76.342 2.42-.643 4.385-1.02 5.822-1.173l4.35-.417c1.058-.68 1.55-1.285 1.512-1.852l-.038-.49c-1.097.112-2.345.037-3.82-.228-.037-.605.265-1.02.984-1.21l8.092-.756 3.706-.946c.037.416.227.568.53.568.377-.038.907-.303 1.587-.757.19.04.416.04.605.077-.49 1.02-1.06 2.496-1.626 4.424l-1.06.077c-.074-.72-.263-1.36-.604-1.93l-.53.04c-9.83 27.376-14.217 40.12-23.292 61.144-1.664 5.37-3.063 8.358-4.273 9 .038.606.416.908 1.06.833.225 2.647-.38 5.256-1.854 7.827-4.2 12.1-6.997 18.718-8.434 19.928l.945 5.71c.04.605-.263.945-.906 1.02l-.983.077c-.15-1.59-.718-2.345-1.74-2.23l-.528.037c-1.286 2.004-2.27 4.31-2.912 6.995l.983-.076c1.324-.868 1.93-1.89 1.815-3.062l1.967-.19 1.134.417c-.908 1.437-1.324 2.572-1.25 3.44l.53.91-1.285 3.024.038.49c1.134-.113 2.382.265 3.706 1.06.906-.076 1.89-.492 2.986-1.21 1.134-.114 5.37-.152 12.668-.152l3.667-1.248c4.464-.038 5.182.076 9.04-.264l1.587-.152.832-.567.037.492c4.046-.342 4.31-.077 7.487.3l.038.493-2.23.19.074.944c.68-.075 1.286-.265 1.778-.68.567-.038.907.264.945.945-.908.076-1.93.302-3.064.68l-.983-.34c-1.55.416-1.21.53-2.27.605l-1.55-.302c.04.264-.113.453-.377.453.037.606.378.908.945.87l1.59-.15 8.28-.72 3.14-.68c.037.265.15.416.415.378l1.512-.567 2.837-.228c2.193-.19 2.155-.34 6.92-1.097-.038-.302.075-.416.302-.453l.038.415c7.752-1.323 8.243-1.4 9.49-1.815l.114.227c1.93-.454.832-.34 1.362-.72.038.34.15.492.34.492l1.36-.113-.074-1.022-2.76-.038-.038-.075c-.114.037-.19.037-.303.075h-.378v.076c-1.853.378-1.89.113-3.1.227l-6.92.378-.04-.49 3.858-.53 1.4-.114.794-.567.036.49c5.446-.453 7.374.908 32.558-4.46 1.36-.115 1.248-1.25 2.118-3.594-.454.038-.908-.075-1.324-.302-2.08.794-3.176.416-7.184 1.06-.34.037-.605-.266-.72-.87l-.037-.417 3.857.113c.72-.075 2.118-.19 4.198-1.36 0 .34-.757.53-.303.49zm-186.196 2.988l-1.778.15c-.075-.717.87-3.44 2.836-8.09l1.173-.114c.038 1.096-.68 3.78-2.23 8.054zm2.155-8.62l-.04-.493c-.037-.605.342-1.02 1.174-1.21l.037.49c.04.72-.34 1.136-1.17 1.212zm23.633 18.263l.038.492-2.95.265-.037-.492 2.95-.264zm-3.555-.302c.038.605-.87 1.286-2.836 1.966l-3.63-.264-1.172.113-.113-1.096 7.75-.72zm23.9-110l-1.78.15-.036-.604c-.038-.605.302-1.02 1.058-1.21l.643-.038 1.21.49c.038.72-.302 1.136-1.096 1.212zm27.036-5.294l.567-.038.076 1.096-1.626.152c-.037-.605.265-1.02.984-1.21zm-6.807 2.382l-2.685-.303-.038-.49c3.517-.304 4.69-.682 6.845-1.287.037.416.415.567 1.095.492l.076 1.096-1.058.114c-.832.075-1.55-.038-2.155-.378-.643.416-1.324.68-2.08.756zm3.366 9.794l-.038-.492 4.348-.416.038.492-4.347.416zm4.65-3.782l-.037-.605 2.117-.19.038.606-2.116.188zm.492-7.41l-.567.037.492-1.173 4.84-.453.038.604c-1.248.113-2.874.453-4.803.983zm2.458 10.435l-.076-1.096 2.118-.19c.72-.075 1.097.265 1.135 1.022l-3.177.263zm12.82-17.47l-2.724.757-.492.037c-1.286.114-2.95.076-4.916-.113 3.517-.227 6.882-.492 8.13-.68zm-2.913 12.1l.038.492-3.743.34-.038-.49 3.743-.34zm6.126 2.912c-.038-.453-.756-.756-2.23-.907l-3.744 1.06-2.874.112c-.643-.454-.983-.756-1.02-.983l3.327.19 7.487-1.21 3.82.15.037.605c-1.892.19-3.48.53-4.804.983zM448.89 12.1c.452.038.755.038.868.038 1.324-1.285 2.8-2.306 4.5-3.025-1.36 5.975-3.48 10.4-6.39 13.273L445.75 21.1c1.777-4.5 2.836-7.487 3.14-9zm-6.505 11.156l.53-.038c-.72 1.36-1.362 2.08-1.892 2.117l-.113-1.437c.34 0 .832-.227 1.475-.642zm-4.198 10.02c1.02-4.084 2.004-6.39 2.912-6.995l.037.492c-.53 3.782-1.362 5.786-2.458 5.937l.188 2.38c-.908 1.287-1.324 2.27-1.286 3.026l-.53.038-.302-3.29c.605-.075 1.097-.605 1.437-1.588zm-1.626 5.445c.04.57-.34 1.892-1.095 3.934l-.53.038-.113-1.437c.718-1.664 1.323-2.496 1.74-2.534zm-30.514 88.56l-.038-.414.983-.076.114 1.437c-.53.038-.907-.265-1.058-.946zm43.6 1.136c-.04-.34-.19-.492-.53-.454l-2.458.227-.038-.493h.227l5.823-.49.038.49c-1.702.076-2.723.34-3.063.72zm-2.913-1.21c.227.113.114.227 0 .302-.113-.037-.264-.15 0-.302zm.303-6.807l-3.252.264-.038-.492 2.95-.264 2.57-.643c.04.302.19.416.53.378 3.063-.53 2.76-.68 4.235-.794.493-.04.796.264.833.87l-7.827.68zm11.382-.984c-1.815-.19-1.93-.34-3.214-.227l-.038-.417 2.91-.264.04.415c-.303.038.793.113.302.49zm.227-.53l-.038-.415 1.588-.15.038.416-1.588.15zm3.516-.302l-.036-.416c.264-.037.642-.226 1.134-.605.794-.075 1.21.454 1.286 1.06l-2.383-.04zm4.5-.567l-.037-.49 1.93-.153.037.492-1.93.15zm2.686-.227c-.038-.567.19-.907.68-.983l.643.832c-.038-.266.075-.417.302-.455l.492.908-2.118-.303zm-28.55 12.328l-.075-.946-.302.038.076.945.303-.037zm66.44-17.206c.302-.19.453-.378-.265-.49-.34.377.38.49-.377.528l.037.34c.076-.075.265-.19.416-.302l-.416.34v.038l-.794 1.02 1.588-.566h.19l-.076-.946-.302.038zm2.76 2.156l-.303.038.076.945 2.23-.188c-.038-.605-1.513-.794-2.004-.794zm-3.44-1.664l.037-.038v-.038s-.038.038-.038.076z"/><path fill="#F9DC3E" d="M361.387 43.41l.038.605 1.248-.113c-.038-.378.113-.983.378-1.74l-.112-1.096c-.53.038-1.06.832-1.55 2.344zm-11.95-28.738l-.112-1.097-1.778.15.114 1.098 1.778-.15zm-34.674 64.926c-.076-1.02-3.252-4.99-9.53-11.987-.113-1.284 2.043-3.213 6.467-5.746l12.63-11.004c2.836-3.593 4.5-9.416 4.99-17.508l-.15-1.853c-.492-5.598-4.538-10.097-12.214-13.538-4.538-3.063-12.706-4.765-24.503-5.068-9.756.832-22.5 4.31-38.192 10.475-4.31 3.1-9.226 6.2-14.747 9.3l.076.947c.34-.038.868-.227 1.474-.643.642-.076 1.02.227 1.058.832l.946-.492.453-.038.04.416c.037.492-3.366 3.176-10.248 7.98l.53.982-.455.038-1.134-.416c.038.34-.454.567-1.4.643l.04.415 1.095 1.36c-.34.04-.87-.112-1.588-.377-1.588.15-3.14.983-4.69 2.57l.644-2.797c2.307-9.944 3.895-18.755 4.727-26.393l-.113-.492c-1.588-1.02-3.138-2.458-4.575-4.273.038-1.172.038-1.853 0-2.004l-.114-.416-.453.114c-4.992 7.487-14.597 20.268-28.852 38.343-10.853 12.856-16.45 20.002-16.79 21.44-4.424 4.575-6.542 7.335-6.315 8.28-1.172.757-1.664 1.513-1.474 2.345-.34.076-.568-.038-.643-.378-1.89 3.063-4.688 5.03-8.432 5.9l-3.933.906c-.53.114-.794.492-.756 1.135l.113.49 1.474-.34.114.417-3.327 1.286-5.9 1.362-3.1.19c-.453.453 2.458-.04 1.324.226l-3.857.908c-2.344.53-3.63.34-3.857-.605l-.454.114c.075.416.113.718.037.983l-.227-.945-3.1.718c-.227-1.437-4.425-6.655-12.555-15.655-.15-1.74 2.723-4.273 8.584-7.562l16.56-14.56c3.707-4.763 5.9-12.402 6.62-22.914l-.228-2.46c-.643-7.41-6.012-13.385-16.11-17.998-5.973-4.046-16.712-6.202-32.216-6.542C95.67 6.806 78.88 11.382 58.233 19.36c-5.672 4.122-12.138 8.206-19.398 12.252l.113 1.286c.492-.038 1.135-.302 1.93-.756.83-.076 1.285.302 1.36 1.06l1.286-.72.643-.038.037.605c.038.604-4.462 4.12-13.575 10.55l.718 1.134-.643.038-1.4-.492c.04.378-.604.643-1.928.756l.076.68 1.512 1.665c-.49.04-1.172-.113-2.04-.415-2.95.264-5.825 2.382-8.66 6.39l.718 1.135c2.458-2.27 3.894-3.403 4.31-3.44l.152 1.852c-.416.037-1.06.302-1.93.756l1.552 2.344c2.987-3.214 6.277-5.974 9.87-8.28 1.776.453 2.722 1.02 2.76 1.625l1.36-.113c9.757-7.223 19.4-12.44 28.966-15.655l.114 1.284c-1.778 2.647-2.988 4.01-3.63 4.084.075.908.378 1.702.945 2.383.15 1.627-4.198 12.593-13.008 32.86C30.44 121.308 13.65 156.17 0 178.71c.038.454.303 1.06.794 1.815 3.366-.794 5.483-1.625 6.39-2.42l.72-.075.113 1.285 1.247-.113 1.286-.718c.038.378.454.567 1.324.49l.113 1.287c.113 1.247-.605 3.137-2.118 5.746-1.362 1.55-2.837 4.803-4.387 9.757l.038.604 1.25-.113c5.444-6.088 9.566-12.063 12.402-17.886 15.882-4.65 27.982-9.227 36.377-13.726 8.43-.72 14.86-2.95 19.246-6.618l-.076-.68-3.176.945-.72.075-.074-.68c6.2-.946 10.474-2.308 12.857-4.198 12.062-9.303 21.175-15.882 27.34-19.777 12.667-9.302 20.91-18.378 24.654-27.188.68-.152 1.362-.303 2.118-.492 1.777-.075 2.76-.113 3.025-.19-.075-.34.076-.528.416-.604 2.835-.302 1.474.19 3.29-.227l4.764-1.097.794-.19-.378.227c.53.076 1.096.038 1.74-.113l.34 1.4-21.668 34.447-4.802 6.013-2.345 7.865.454-.113 2.343-.984-.756 3.063.227.906.643.794c-.303.076-.416.265-.34.605l.113.492.983-.227c1.437-1.248 2.042-2.382 1.815-3.403 1.55.264 2.57.378 3.1.227l.114.49c-.945.228-1.437.984-1.512 2.27l.113.49.53-.112c7.865-8.584 27.15-37.965 42.616-57.893-.493-2.156 7.562-5.144 24.2-9l.53-.114c.604 2.61-.68 8.924-3.858 18.945-2.042 6.05-3.025 9.378-2.874 9.908-2.647 8.054-3.895 12.403-3.743 13.083l-5.9 19.324c-3.82 9.908-6.73 20.306-8.772 31.272.34-.075.87-.037 1.626.152l.83-.72c.076.342.303.455.644.38l-.34-1.4 2.57-.075c.757-.19 1.4-1.135 1.93-2.874-.114-2.61.415-4.01 1.587-4.312 1.59-6.2 2.573-9.302 2.913-9.416 1.475-6.163 2.57-9.68 3.29-10.55 2.23-8.016 3.857-12.138 4.916-12.403l.226.982-1.626 4.198c-2.837 12.592-5.71 22.537-8.622 29.835l.832 3.63.53-.113c7.033-15.126 17.167-45.075 30.364-89.846.378-3.933 2.27-6.996 5.634-9.15l-.756-.795-.114-.415c1.513-.34 2.572-.945 3.177-1.777-.076-.34-1.4-.832-3.97-1.513l6.58-28.21c1.436-1.285 2.268-1.965 2.532-1.965l.114 1.436c-.34.038-.87.227-1.474.643l1.248 1.777c2.27-2.458 4.727-4.576 7.41-6.353 1.363.378 2.043.832 2.12 1.285l.982-.076c7.487-5.483 14.823-9.416 22.046-11.798l.075.945c-1.323 2.005-2.23 3.026-2.722 3.064.075.68.264 1.286.605 1.815.113 1.247-3.14 9.566-9.794 24.994-15.2 35.734-27.945 62.166-38.306 79.334.038.34.265.794.68 1.4 2.535-.606 4.16-1.25 4.804-1.854l.453-.038.076.945 1.06-.074.944-.492c.038.265.378.378 1.02.34l.077 1.022c.075.907-.454 2.344-1.626 4.31-1.097 1.173-2.23 3.63-3.44 7.374l.036.492.984-.076c4.12-4.613 7.26-9.15 9.415-13.613 12.063-3.554 21.252-6.996 27.604-10.4 6.467-.566 11.344-2.23 14.672-5.028l-.04-.492-2.457.72-.53.037-.037-.492c4.69-.68 7.98-1.74 9.756-3.138 9.15-7.034 16.07-12.063 20.76-15.013 14.596-10.625 21.403-20.835 20.57-30.63zm-2.496.643l.34 3.82c-.453.946-.945 1.437-1.4 1.475l-.566-6.504c1.06.38 1.59.757 1.627 1.21zM25.94 49.46l-.642.038-.114-1.172 2.61-.227.037.604c-.415.038-1.058.265-1.89.757zM13.197 176.93c-1.512-.68-2.874-.944-4.046-.83L9 174.245c-.076-.718.34-1.21 1.248-1.4.83-.074 1.323.53 1.4 1.74 2.192-2.684 3.402-4.045 3.63-4.083l1.398.567c-.454 3.78-1.626 5.71-3.48 5.86zM149.365 34.487c-.643.076-1.93-1.928-3.78-5.9l-.115-1.17c1.21-.114 2.458 1.852 3.78 5.898l.115 1.172zm-1.815-14.104l-.53 1.248-18.49-7.715c12.327.416 18.68 2.572 19.02 6.467zM69.464 87.426l-2.61.227-.112-1.173 2.61-.227.112 1.173zm-2.118-40.272l.643-.038.15 1.853c-.604.037-1.398.944-2.382 2.684l-.113-1.286c1.172-1.4 1.777-2.458 1.7-3.214zm-5.483 12.932l.227 2.458-.642.038-.227-2.458.643-.038zM58.99 64.7l1.248-.114c-.114 2.042-.68 3.14-1.702 3.214l-.643.038c.794-1.36 1.172-2.42 1.097-3.138zm-2.156 6.428l.72-.076.036.605-1.172 1.967-1.248.113-.037-.605c1.248-.113 1.815-.756 1.7-2.004zm-2.117 5.786l-.378 3.1-.644.038-.265-3.063 1.287-.076zm-21.214 60.313c-.832 4.235-1.74 6.39-2.685 6.466l-.037-.605c-.226-2.08.68-4.046 2.723-5.86zm-3.895 8.432l.038.604c.076.832-.302 1.324-1.134 1.36l-.038-.604c-.076-.718.302-1.172 1.134-1.36zm-1.134 17.507l1.966-.19.076.682c-.492.036-1.135.3-1.93.755l-1.247.113c-.076-.643.34-1.134 1.134-1.36zm55.964-17.28c-11.04 5.444-17.545 9.15-19.474 11.078-11.95 4.16-17.886 6.73-17.772 7.752-10.626 4.198-17.622 7.298-20.987 9.227-.794.075-1.928-.227-3.44-.908-.19-2.155.793-3.895 2.873-5.294 1.853-.15 3.63.114 5.332.832 1.966-1.02 5.407-2.155 10.285-3.365l-.113-1.287-3.933.34c.49-.68 4.272-2.457 11.38-5.33l1.967-.19.038.605c-3.365.302-5.218 1.285-5.634 3.063.076.795.53 1.135 1.362 1.06 2.534-1.59 3.78-2.534 3.744-2.8 4.802-.906 18.075-7.864 39.818-20.834l.113 1.172c.038.567-1.815 2.155-5.56 4.878zm-33.35 10.965c3.175-.265 5.898-1.55 8.166-3.78.908-.077 1.4.263 1.437 1.057-1.55.15-4.536 1.436-8.885 3.932l-.643.038-.075-1.248zm53.808-41.33L88.22 128.755c-12.403 8.13-19.058 12.214-20.042 12.29-19.738 10.852-32.028 16.487-36.792 16.903l-.72.074c.606-2.23 9.38-20.192 26.395-53.998 7.488-.643 19.286-4.122 35.357-10.474l3.933-.34c8.13-.72 14.218.87 18.226 4.65l.227 2.458c-2.987 8.66-6.315 13.727-9.907 15.2zM72.3 97.18l2.685-.227.038.605-2.685.227-.038-.605zm37.7-6.39l1.967-.19c1.815.87 2.76 1.626 2.836 2.307l.038.604c-1.74.15-3.365-.757-4.84-2.723zm5.332-30.365c-1.74 2.08-6.504 5.634-14.293 10.625-2.573.227-12.14 3.933-28.702 11.193-.832-.378-1.702-.53-2.647-.454l-.112-1.17c-.19-2.383.87-5.37 3.214-9 1.285-6.807 2.685-10.702 4.235-11.647L90.83 28.928c-.152-1.93 2.797-3.404 8.847-4.425l1.967-.19.15 1.78c5.938-.91 9.643-1.438 11.08-1.552 10.967-.944 16.676 1.287 17.13 6.62l1.248-.115-.265-3.138 1.362-.114c3.213 1.777 4.952 3.933 5.18 6.466.15 1.74-.795 3.894-2.8 6.466-.83.075-1.323-.53-1.398-1.74l-1.362.114-.302 3.78c-5.56 8.32-9.605 12.593-12.1 12.82-2.27 3.138-3.668 4.69-4.236 4.727zm8.47 21.743c-1.134-.757-2.04-1.097-2.722-1.06l-.15-1.852 1.247-.114 2.76 1.627c.114.87-.265 1.324-1.134 1.4zm8.774 10.398c1.21.492 1.928 1.02 2.08 1.513l-.606.152.038.038c-.113 0-.265.038-.378.076l-.908.718-.226-2.496zm.83 5.22l-.112-.493 1.588-.378.114.492-1.59.377zm3.82 4.272c1.627-.265 2.42-.378 5.446-1.06l.113.492-5.747 1.324c.075-.265.15-.53.19-.756zm5.597 2.382c-2.42.227-1.89-.076-5.748.794l-.113-.492 4.84-1.55 2.307-.53.226.908c-1.06.227-.303.227-1.513.87zm5.105-1.21c-.567.15-1.02-.113-1.286-.756l1.475-.34c.643-.152 1.06.113 1.21.756l-1.4.34zm13.84-14.9l-.114-.49 2.383-.568.227.908-2.496.15zm14.785 90.68c.15-.682.19-1.173.113-1.514l.53-.113c.643-.15 1.02.076 1.172.68l.114.492-1.93.454zm10.36-86.784l-1.058-.19c-1.7.682-3.138 1.173-4.31 1.438l-.984.227c-.566.15-1.02-.076-1.247-.68l6.92-1.59 2.27-1.058.756.87c-1.098.227-1.892.567-2.346.983zm5.333-1.702l-.114-.49c.34-.077.794-.34 1.286-.833l4.916-1.135.113.492c-2.61.643-4.69 1.286-6.2 1.966zm.756-9.945c-.34.077-.794.38-1.36.833-.077-.34-.757-.34-2.043-.038-.228-.945 3.402-2.268 10.927-4.008l1.06-.227.226.908c-5.294 1.55-8.244 2.42-8.81 2.533zm13.235-14.292c-.53 6.012-2.647 9.415-6.39 10.285l-.114-.49-3.328 1.284-1.474.34c-.756.19-1.436.152-2.04-.037l-.304-1.324c-.113-.49 4.69-7.147 14.445-19.928l1.135.19c.416 1.74-.226 4.953-1.928 9.68zm23.407-20.042l-.454.038-.076-.945 1.967-.19.038.49c-.34.077-.83.266-1.474.606zM220 143.088c-1.133-.53-2.154-.757-3.024-.68l-.113-1.438c-.038-.49.264-.832.907-1.02.643-.076 1.02.377 1.097 1.36 1.626-2.08 2.533-3.138 2.722-3.138l1.02.416c-.378 2.874-1.247 4.386-2.61 4.5zM323.385 34.94c-.49.038-1.437-1.475-2.91-4.538l-.077-.945c.945-.076 1.93 1.4 2.912 4.424l.074 1.06zm-1.36-10.815l-.455.983-13.992-5.86c9.34.302 14.18 1.928 14.445 4.877zm-59.33 50.936l-1.967.19-.076-.946 1.967-.19.076.947zm-1.627-30.59l.53-.04.113 1.438c-.492.038-1.097.72-1.815 2.042l-.076-.945c.87-1.097 1.285-1.93 1.247-2.496zm-4.122 9.83l.152 1.854-.53.038-.15-1.853.528-.04zm-2.23 3.517l.982-.075c-.113 1.588-.53 2.42-1.247 2.495l-.53.038c.567-1.058.832-1.89.794-2.458zm-1.59 4.84l.455-.037.038.49-.87 1.514-.983.076-.038-.492c1.02-.076 1.475-.605 1.4-1.55zm-1.587 4.387l-.34 2.42-.454.038-.19-2.382.984-.076zm-16.147 45.868c-.64 3.177-1.322 4.803-2.04 4.878l-.038-.416c-.114-1.588.567-3.1 2.08-4.462zm-2.986 6.39l.038.417c.076.68-.227 1.057-.908 1.095l-.037-.49c-.038-.493.264-.833.907-1.022zm-.832 13.31l1.513-.112.037.49c-.34.04-.87.228-1.474.57l-.983.074c-.038-.53.264-.87.907-1.02zm42.465-13.12c-8.32 4.122-13.273 6.92-14.823 8.357-9.075 3.175-13.575 5.14-13.5 5.935-8.054 3.215-13.348 5.52-15.843 6.996-.604.04-1.474-.188-2.61-.717-.15-1.626.606-2.95 2.195-3.933 1.437-.113 2.798.076 4.046.605 1.513-.756 4.122-1.588 7.828-2.534l-.075-.944-3.063.265c.378-.53 3.29-1.89 8.697-4.083l1.512-.114.037.416c-2.57.226-4.008.983-4.31 2.344.037.605.415.907 1.058.832 1.89-1.248 2.798-1.967 2.798-2.193 3.63-.643 13.69-5.937 30.214-15.844l.075.944c0 .378-1.4 1.588-4.235 3.668zm-25.335 8.32c2.458-.228 4.538-1.173 6.277-2.837.642-.038 1.02.227 1.058.832-1.135.113-3.366 1.06-6.73 2.874l-.53.038-.076-.907zm40.915-31.424l-12.592 10.134c-9.416 6.163-14.52 9.264-15.315 9.34-14.974 8.243-24.277 12.516-27.945 12.82l-.53.036c.455-1.7 7.148-15.352 20.08-40.99 5.634-.49 14.56-3.176 26.81-8.016l3.063-.265c6.164-.53 10.777.68 13.802 3.592l.152 1.852c-2.307 6.504-4.803 10.323-7.525 11.496zm-24.73-13.916l1.966-.19.037.493-1.966.19-.038-.493zm28.624-4.878l1.514-.113c1.4.68 2.118 1.286 2.155 1.778l.037.416c-1.323.113-2.57-.567-3.706-2.08zm3.972-23.03c-1.324 1.59-4.916 4.312-10.777 8.094-1.966.19-9.227 2.987-21.78 8.432-.606-.227-1.287-.302-2.005-.265l-.076-.945c-.15-1.815.643-4.084 2.383-6.844.983-5.22 2.08-8.13 3.214-8.81l10.55-23.597c-.113-1.4 2.118-2.534 6.656-3.404l1.513-.113.112 1.436c4.462-.72 7.26-1.135 8.395-1.248 8.32-.72 12.667.945 13.008 5.03l.983-.077-.19-2.27.984-.074c2.42 1.324 3.706 2.912 3.857 4.803.112 1.36-.568 3.025-2.005 4.954-.643.075-1.02-.378-1.097-1.362l-.983.076-.302 2.837c-4.198 6.39-7.26 9.68-9.19 9.832-1.7 2.305-2.76 3.478-3.25 3.515zm4.424 15.732l-.113-1.437.983-.076 2.117 1.285c.038.604-.264.945-.907 1.02-.908-.567-1.588-.832-2.08-.794zm-176.024 91.85l-.983.227-.833.718c.152.606.53.833 1.173.682.642-.15.907-.53.756-1.134l-.114-.492zm-3.743-7.45l.112.492c.643-.15.908-.53.757-1.134l-.115-.492c-.605.15-.87.53-.756 1.135zm26.77-50.292l.72-.454c-.152 0-.265-.038-.38-.075-.263.075-.377.264-.34.53zm-.15-13.046l1.134-.264-.227-.984-1.134.265.227.983zm267.23 38.192l-2.57-.302-.455.983.038.493 15.315-1.286-.076-.945-12.25 1.058zm13.992-1.172l.075.945h.15l-.074-.945h-.15zm64.245-8.395l.076.946 1.664.3-.076-.944-1.663-.303zm-2.344.19c-11.495 2.57-12.932 2.117-15.352 2.306l.076.944 1.06-.075.566-.04-.15-.112 1.247-.492c11.38-1.248 12.704-.794 12.59-2.08l-.037-.454zm-69.01-16.714l-1.02-.34c-.833 2.23-1.25 3.553-1.21 3.93l.036.417c.794-.038 1.512-1.4 2.193-4.008zm-13.84-7.45l-.038-.492-.53.038-.945.605.53.908c.718-.075 1.058-.416.983-1.058zm30.062 31.082l-.076-.945-.303.038.075.945.303-.038zm62.393-14.066l.718-.076c.416-.038.605-.378.567-.983l-.416-.908c-2.61.226-3.82.34-5.936 1.512l-.037-.492-3.14.303c-.074-.946-.34-1.437-.755-1.4l-1.626.152c-1.89.15-2.798.076-3.744.794-.037-.34-.15-.493-.34-.493l-1.815.152-1.06.604c-.037-.34-.15-.492-.34-.492l-.642.567-.037-.492-2.533-.19-.605.04.075.944 1.286.34 1.21-.075c.416.264.87.34 1.4.302l1.058-.53.038.416c-5.937 1.474-5.9 1.21-9.983 1.89-.455-.302-.795-.453-1.022-.416l-.076.076c-.453-.038-.718-.34-.756-.832l2.118-.265c.15 0 .264.15 1.436.378 1.702-.832 1.778-1.173 2.685-1.248l-.075-.946c-5.824 1.135-3.48.378-10.777 1.02l-.34.04-.076-.946c9.378-1.135 6.24-.492 9.453-1.4.038.34.152.492.34.492.38-.378.795-.567 1.286-.643l.643-.037c3.29-.265 4.386.378 10.89-1.437l.037.416 1.06-.53.982-.076c-.076-.946 1.36-1.097 1.852-1.135l-.075-1.022c-11.42 2.307-14.408 1.664-17.584 2.572l-.038-.416c-2.987.53-3.1.302-3.857.34-.227.038-.567.227-.945.605-.038-.34-.15-.493-.378-.493-.114 0-.15.038-.19.038l-9.68 1.588c-.037-.264-.15-.416-.378-.378-5.03 1.06-3.668 1.248-10.4 1.853-.3.038-.717.19-1.246.53-.037-.265-.19-.416-.53-.38l-4.12.342-2.76.68c-.04-.264-.19-.416-.53-.378-1.55.416-2.912.68-4.01.756h-.074c-.68.076.34-.19-.19-.415l-.83.49c-1.21.115-.568-.075-4.728-.037-7.298.908-6.504 1.02-7.298 1.06l-2.723-.19c.038.265-.113.454-.416.454-3.1-.416-4.687-.908-4.725-1.475.416-2.95 1.134-4.462 2.155-4.538l.53-.037-.454.983.53-.038c.982-.53 1.436-1.02 1.398-1.475l-.075-1.02-.985.075-.075-.946c-.076-.72.038-1.362.302-1.89l2.23-3.594.077.946 1.058-.076-.076-.945-.605-.87c.794-.68 1.4-1.058 1.89-1.096l-.037-.49-1.437.112-.113-1.437c2.874-5.975 4.235-9.454 4.16-10.437l1.02.416c.643-.04.945-.417.908-1.098l-.984.076-.037-.416c-.076-.72.075-1.4.378-2.004 1.55-1.626 2.27-3.252 2.117-4.954.303-.038.454.114.492.454 1.324-.756 2.345-2.76 3.1-6.088 2.345-4.235 5.673-12.706 10.02-25.373 8.32-22.386 7.98-24.768 9.152-30.062l-.983.075c.076.68-.075 1.324-.378 1.93-.68-.266-1.21-.417-1.588-.38l-.038-.415c-.152-1.93.642-4.235 2.457-6.958l.454-.038.833 3.25.983-.074c-.038-.227.227-1.513.756-3.895-.038-.49-.416-.793-1.172-.83l-.945.604c-.076-.68-.038-2.458.075-5.294l-.492.038c-.83-.832-1.247-1.513-1.285-2.08l-5.408.53c-.037-.38-.226-.946-.605-1.665-.037-.49 1.173-.983 3.668-1.474l1.097.415 1.02-.605c.04.34.228.49.606.453l1.022-.605c.038.34.227.492.605.454l.492-.038-.077-1.096c-.756.075-2.76.075-5.937-.038l-1.02.68-.04-.604c-25.372 2.08-39.78 3.252-43.22 3.592-.454.038-2.23 0-5.37-.076.038.416-.34.643-1.096.72l-1.097-.493-3.705.945c-.87.075-2.345.037-4.387-.19-.566.454-1.247.72-2.08.795-.452.037 5.41-.303 10.854-.68-.567.453-1.437.717-2.647.83-.832.076-1.55-.037-2.155-.377-.832.378-3.517.983-8.017 1.89l-1.096-.416L365.81 9.34c-.68-.34-1.475-.454-2.383-.378-.946.075-2.534.416-4.727 1.02l-8.546 3.555.642 1.06c.415-.04 1.02-.266 1.74-.682l3.024.265-.378 2.836c-2.798 1.248-4.424 3.1-4.878 5.445-4.197 1.854-6.277 3.178-6.277 3.972l.04.49.64-.036 1.136-.605 1.323 1.59.188 2.192c.076.68-6.995 15.54-21.138 44.583-12.25 27.982-18.68 43.297-19.285 46.057-4.197 1.172-6.617 2.874-7.336 5.143.075.718 1.323 1.21 3.743 1.4l.113 1.095-1.096 1.815.19 2.194c.112 1.133 3.175 2.003 9.188 2.608-.038-.378.15-.605.567-.643.113 1.36-.265 4.008-1.135 7.94l.643-.037c2.496-3.403 3.668-5.748 3.555-7.033l.53-.038c.604-.038 1.247.643 2.003 2.117-.755.303-3.402 6.315-7.94 18.075l.643 1.058.643-.038c5.56-14.066 9.038-21.856 10.474-23.33 7.3-.644 19.928-1.93 37.852-3.858l1.135-.68c.037.378.264.567.68.53l1.173-.115 1.134-.68c.038.378.265.567.68.53l13.576-1.173c3.592-.303 5.294-1.4 5.142-3.252-.037-.492 2.08-1.06 6.353-1.664.416-.038 1.02.076 1.853.34-.038-.34 2.118-.68 6.43-1.058.112-2.27.83-3.48 2.116-3.593l-.113-1.096c-1.21.114-2.57.417-4.16.946-2.835-.15-4.65-.378-5.406-.643-.757.416-1.324.643-1.74.68l-9.453.303-1.134.605c-.038-.34-.264-.49-.68-.452l-.53.037-1.21.606c-.038-.34-1.02-.605-2.987-.87l-1.21.72-2.345.188-.038-.605c12.176-1.323 18.188-2.987 18.037-4.953.794-.076 1.21.302 1.285 1.096l3.554-.907-.113-1.098-29.154.794c.038.378-.15.605-.567.643l-3.556-.303c-.907.075-1.663.34-2.268.794l-1.324-.49c-3.668.302-6.39.755-8.206 1.323-2.495-.19-5.256-.152-8.32.113l-6.54.567-3.025-.34c-.15-1.93 3.593-11.42 11.307-28.436 2.23-5.748 4.273-9.34 6.24-10.7.415-.04 1.02.112 1.852.452l4.65-1.59 2.382.38c4.01-.34 8.66-1.475 13.992-3.442 1.323-.113 2.306-.037 3.025.265l3.553-.832 10.588-.907c4.5-.378 9.38-1.36 14.673-2.987l-.114-1.096c-1.967.19-2.988-.152-3.063-.946-.114-1.474-1.55-2.08-4.31-1.853l-.115-1.095 2.912-.832 7.638-.643-.113-1.096c-.304.037-1.854 0-4.728-.114l-.113-1.172 2.948-.265c.794-.075 1.135-.454 1.06-1.21-3.97.113-5.976-.076-6.013-.605-27.68 1.36-41.558 1.626-41.633.756-.416.038-.984.303-1.74.757l-.718-1.134c7.335-15.58 11.646-23.445 12.894-23.558.038.605-.265 1.588-.908 2.912l.038.49L366 37.4c2.912-6.958 5.37-10.55 7.412-10.7 8.697-.758-1.21-1.325 17.395-4.237.756.342 1.285.493 1.663.455 7.298-1.475 17.47-3.025 30.516-4.613l-.076-1.097-6.957.643-.076-1.097c.832-.074 1.513-.34 2.08-.793l.038.605c.378-.037.907-.302 1.588-.756 1.21-.113 2.117 0 2.76.34 2.42-.642 4.387-1.02 5.824-1.172l4.348-.416c1.06-.68 1.55-1.285 1.513-1.853l-.038-.49c-1.097.112-2.344.037-3.82-.228-.037-.605.265-1.02.984-1.21l8.092-.756 3.706-.945c.038.416.227.567.53.567.377-.037.907-.302 1.587-.756.19.038.415.038.604.076-.49 1.02-1.058 2.496-1.626 4.424l-1.058.076c-.076-.72-.265-1.362-.605-1.93l-.53.04c-9.83 27.376-14.218 40.12-23.293 61.144-1.664 5.37-3.063 8.357-4.273 9 .037.605.415.907 1.058.832.227 2.647-.378 5.256-1.853 7.827-4.198 12.1-6.996 18.718-8.433 19.928l.946 5.71c.037.605-.265.945-.908 1.02l-.983.077c-.15-1.59-.72-2.345-1.74-2.23l-.53.036c-1.285 2.004-2.268 4.31-2.91 6.996l.983-.076c1.323-.87 1.928-1.89 1.815-3.063l1.966-.19 1.135.417c-.907 1.437-1.323 2.572-1.247 3.44l.53.91-1.287 3.024.04.492c1.134-.114 2.38.264 3.705 1.058.907-.075 1.89-.49 2.987-1.21 1.135-.113 5.37-.15 12.668-.15l3.668-1.25c4.462-.037 5.18.077 9.037-.264l1.588-.15.832-.568.038.492c4.046-.34 4.31-.076 7.487.302l.038.492-2.23.19.075.944c.68-.076 1.285-.265 1.777-.68.567-.038.907.264.945.945-.907.075-1.928.302-3.063.68l-.983-.34c-1.55.416-1.21.53-2.27.605l-1.55-.302c.038.264-.113.453-.378.453.038.605.378.908.945.87l1.588-.15 8.282-.72 3.138-.68c.038.264.15.416.416.378l1.514-.566 2.836-.227c2.193-.19 2.155-.34 6.92-1.097-.038-.302.075-.416.302-.454l.038.416c7.752-1.323 8.243-1.4 9.49-1.815l.115.227c1.928-.454.832-.34 1.36-.718.04.34.152.49.34.49l1.363-.112-.076-1.02-2.76-.04-.038-.075c-.114.037-.19.037-.303.075h-.377v.076c-1.853.38-1.89.114-3.1.228l-6.92.378-.038-.492 3.857-.53 1.4-.113.793-.566.038.492c5.445-.454 7.373.907 32.557-4.462 1.362-.114 1.248-1.248 2.118-3.593-.454.04-.908-.074-1.323-.3-2.08.793-3.177.415-7.185 1.058-.34.038-.605-.265-.72-.87l-.037-.416 3.857.113c.72-.075 2.118-.19 4.198-1.36 0 .34-.794.528-.34.49zm-186.196 2.987l-1.777.15c-.076-.717.87-3.44 2.836-8.09l1.173-.114c.038 1.095-.68 3.78-2.23 8.053zm2.156-8.622l-.038-.49c-.038-.605.34-1.02 1.172-1.21l.038.49c.038.72-.34 1.136-1.172 1.21zm23.633 18.265l.04.492-2.95.265-.038-.492 2.95-.265zm-3.553-.302c.038.605-.87 1.286-2.836 1.966l-3.63-.265-1.172.113-.113-1.097 7.752-.717zm23.898-110l-1.777.15-.038-.604c-.038-.606.303-1.022 1.06-1.21l.642-.04 1.21.492c.037.72-.303 1.135-1.097 1.21zm27.037-5.295l.567-.037.075 1.097-1.626.15c-.04-.604.263-1.02.982-1.21zm-6.807 2.383l-2.684-.302-.037-.49c3.517-.304 4.69-.682 6.844-1.287.038.417.416.568 1.097.493l.075 1.096-1.06.113c-.83.075-1.55-.038-2.155-.38-.643.417-1.323.682-2.08.758zm3.366 9.795l-.037-.492 4.35-.416.037.492-4.35.415zm4.652-3.782l-.038-.605 2.118-.19.038.606-2.118.19zm.492-7.41l-.568.036.492-1.173 4.84-.454.038.605c-1.248.114-2.874.454-4.802.984zm2.458 10.435l-.076-1.096 2.118-.19c.718-.075 1.096.265 1.134 1.022l-3.176.264zm12.818-17.47l-2.722.757-.492.037c-1.285.114-2.95.076-4.916-.113 3.517-.228 6.883-.493 8.13-.682zm-2.91 12.1l.037.492-3.744.34-.038-.49 3.744-.34zm6.125 2.912c-.038-.453-.757-.756-2.23-.907l-3.745 1.06-2.874.112c-.643-.454-.983-.756-1.02-.983l3.327.19 7.487-1.21 3.82.15.037.605c-1.89.19-3.48.53-4.802.983zm38.532-9.945c.454.038.756.038.87.038 1.323-1.286 2.798-2.307 4.5-3.025-1.362 5.975-3.48 10.4-6.39 13.273l-2.12-1.285c1.78-4.5 2.838-7.487 3.14-9zm-6.504 11.155l.53-.037c-.72 1.36-1.362 2.08-1.89 2.117l-.115-1.437c.34 0 .832-.227 1.475-.643zm-4.197 10.02c1.02-4.083 2.004-6.39 2.91-6.994l.04.49c-.53 3.782-1.362 5.787-2.46 5.938l.19 2.382c-.907 1.286-1.323 2.27-1.286 3.025l-.53.04-.3-3.29c.604-.076 1.095-.606 1.436-1.59zm-1.626 5.446c.037.567-.34 1.89-1.097 3.933l-.53.037-.113-1.437c.72-1.664 1.324-2.496 1.74-2.534zm-30.516 88.56l-.038-.416.983-.075.113 1.437c-.53.038-.908-.265-1.06-.946zm43.6 1.135c-.04-.34-.19-.49-.53-.453l-2.458.227-.038-.492h.227l5.823-.49.038.49c-1.7.076-2.722.34-3.063.72zm-2.912-1.21c.227.114.113.228 0 .303-.114-.038-.265-.15 0-.302zm.302-6.806l-3.252.265-.038-.493 2.95-.264 2.57-.643c.04.302.19.416.53.378 3.064-.53 2.76-.68 4.236-.794.49-.038.794.265.832.87l-7.828.68zm11.382-.983c-1.815-.188-1.928-.34-3.214-.226l-.038-.416 2.912-.264.038.416c-.303.037.794.113.302.49zm.227-.528l-.038-.416 1.588-.152.038.416-1.587.152zm3.517-.303l-.038-.417c.265-.037.643-.227 1.134-.605.794-.075 1.21.454 1.286 1.06l-2.382-.04zm4.5-.568l-.038-.492 1.928-.15.038.49-1.928.152zm2.684-.227c-.037-.567.19-.907.68-.983l.644.832c-.038-.265.075-.416.302-.454l.492.908-2.118-.303zm37.21-4.386l.037-.04v-.037s-.037.038-.037.076zm.68-.493c.302-.19.454-.378-.265-.49-.34.377.377.49-.38.528l.04.34c.074-.075.264-.19.415-.302l-.416.34v.038l-.795 1.022 1.588-.567h.19l-.077-.946-.302.037zm2.76 2.156l-.302.037.075.946 2.23-.19c-.036-.604-1.51-.793-2.003-.793z"/></svg>