<svg xmlns="http://www.w3.org/2000/svg" id="Layer_1" viewBox="0 0 256 290.2"><style>.st0{fill:#264DE4;} .st1{fill:#2965F1;} .st2{fill:#EBEBEB;} .st3{fill:#FFFFFF;}</style><path d="M127.8 289.3L23.7 260.4.4 0h255.1l-23.2 260.4-104.5 28.9z" class="st0"/><path d="M212.4 243.8l19.9-222.5H128v245.9l84.4-23.4z" class="st1"/><path d="M53.7 117.9l2.9 31.9H128v-31.9H53.7zM47.9 53.2l2.9 31.9H128V53.2H47.9zM128 200.8h-.1l-35.6-9.6-2.3-25.4H58l4.5 50.1 65.4 18.2h.1v-33.3z" class="st2"/><path d="M202.1 117.9l5.8-64.6h-80v31.9h45l-2.9 32.7h-42.1v31.9h39.3l-3.7 41.4-35.6 9.6V234l65.5-18.1.5-5.4 7.5-84.1.7-8.5z" class="st3"/></svg>