<svg xmlns="http://www.w3.org/2000/svg" id="Layer_1" viewBox="0 0 256 290.2"><style>.st0{fill:#E44D26;} .st1{fill:#F16529;} .st2{fill:#EBEBEB;} .st3{fill:#FFFFFF;}</style><path d="M255.6 0l-23.2 260.4-104.5 29-104.2-29L.4 0h255.2z" class="st0"/><path d="M128 267.2l84.4-23.4 19.9-222.5H128v245.9z" class="st1"/><path d="M82.8 85.2H128v-32H47.9l.8 8.6 7.8 88H128v-31.9H85.7l-2.9-32.7zM90 165.8H58l4.5 50.1 65.4 18.2h.1v-33.2h-.1l-35.6-9.6-2.3-25.5z" class="st2"/><path d="M127.9 149.8h39.3l-3.7 41.4-35.6 9.6V234l65.5-18.1.5-5.4 7.5-84.1.8-8.6H128v32h-.1zM127.9 85.1l77.1.1.6-7.2 1.5-16.2.8-8.6h-80v31.9z" class="st3"/></svg>