<svg xmlns="http://www.w3.org/2000/svg" id="Layer_1" viewBox="0 0 256 290.2"><style>.st0{fill:#81C564;}</style><path d="M192.6 128.7c-.6-7.4-2-14.7-3.9-21.9-5.9-22.5-15.9-44.1-29.8-62.8-3.8-5.1-7.9-10-12.3-14.6-4.5-4.7-9.6-9.1-12.7-15-2-3.7-3.9-7.5-5.8-11.3 0 1.2-.1 2.4-.1 3.5 0-1.2.1-2.4.1-3.5-.4-.9-.7-1.8-1.2-3.1-.2.7-.3 1-.3 1.2-.2 6.1-3.6 10.3-8 14.2-4.9 4.4-9.4 9.1-14.1 13.7.2.2.3.4.5.6-.2-.2-.4-.4-.5-.6C90.4 47.5 78.1 67 70.9 89c-2.1 6.4-3.8 12.9-4.9 19.6-2.5 14.1-3.6 27.8-2.8 42.1.4 7.9 1.8 15.7 3.9 23.3 7.5 27.8 22.6 50.8 43.4 70.4 3.9 3.6 8 6.9 12 10.4v-.1.1c.6 2 1.2 4.1 1.8 6.1.6 3.2 1.1 6.3 1.7 9.5.3 3.3.5 6.6.8 9.9 0 2-.1 4 0 6 0 .5.7 1 1.1 1.5v-.1.1c1.1.4 2.2.8 3.4 1.2l3.5 1.4c-.2-3.3-.4-6-.6-8.8v-8.7l-.2.2.2-.2 1.2-13.2c.3-1 .6-1.9.9-2.9.8-1.5 1.7-3 2.5-4.4 3.1-2.5 6.4-4.7 9.2-7.5 5.1-5 10.2-10.1 14.8-15.6 5.9-7.1 11-14.9 15.1-23.2 11.6-23.7 17-50.1 14.9-76.5-.2-.4-.2-.6-.2-.9z" class="st0"/></svg>