<svg xmlns="http://www.w3.org/2000/svg" version="1.1" width="1024" height="632">
<rect x="0" y="0" width="1024" height="632" fill="#959694" />
<g transform="scale(4.000000) translate(0.5 0.5)">
<polygon fill="#000000" fill-opacity="0.501961" points="234,47 234,173 32,129" />
<polygon fill="#ffffff" fill-opacity="0.501961" points="-16,124 271,11 -3,10" />
<polygon fill="#000000" fill-opacity="0.501961" points="239,65 60,64 64,173" />
<polygon fill="#ffffff" fill-opacity="0.501961" points="-16,150 61,173 60,6" />
<polygon fill="#ffffff" fill-opacity="0.501961" points="271,10 271,83 -1,11" />
<polygon fill="#ffffff" fill-opacity="0.501961" points="236,10 271,137 237,173" />
<polygon fill="#000000" fill-opacity="0.501961" points="86,161 234,63 236,172" />
<polygon fill="#000000" fill-opacity="0.501961" points="-1,8 92,-16 185,10" />
<polygon fill="#ffffff" fill-opacity="0.501961" points="1,173 -10,-16 65,135" />
<polygon fill="#ffffff" fill-opacity="0.501961" points="47,62 260,64 254,8" />
<polygon fill="#000000" fill-opacity="0.501961" points="203,-16 113,9 271,8" />
<polygon fill="#1f1e15" fill-opacity="0.501961" points="62,64 61,173 233,65" />
<polygon fill="#ffffff" fill-opacity="0.501961" points="-16,14 62,33 58,173" />
<polygon fill="#ffffff" fill-opacity="0.501961" points="271,130 237,173 236,9" />
<polygon fill="#ffffff" fill-opacity="0.501961" points="271,74 271,9 36,10" />
<polygon fill="#09121f" fill-opacity="0.501961" points="-16,9 30,-16 121,8" />
<polygon fill="#ffffff" fill-opacity="0.501961" points="12,8 -16,156 67,173" />
<polygon fill="#ffffff" fill-opacity="0.501961" points="125,41 36,37 26,66" />
<polygon fill="#292924" fill-opacity="0.501961" points="235,65 100,173 62,64" />
<polygon fill="#ffffff" fill-opacity="0.501961" points="265,63 271,26 138,62" />
<polygon fill="#ffffff" fill-opacity="0.501961" points="271,141 237,173 236,16" />
<polygon fill="#ffffff" fill-opacity="0.501961" points="60,28 61,155 -16,167" />
<polygon fill="#1d2331" fill-opacity="0.501961" points="271,10 228,-16 135,7" />
<polygon fill="#7c817c" fill-opacity="0.501961" points="73,26 57,19 38,24" />
<polygon fill="#4e5149" fill-opacity="0.501961" points="70,93 123,94 76,131" />
<polygon fill="#ffffff" fill-opacity="0.501961" points="189,33 100,10 48,35" />
<polygon fill="#a3a7a2" fill-opacity="0.501961" points="146,39 98,37 124,30" />
<polygon fill="#21211a" fill-opacity="0.501961" points="97,149 234,173 234,67" />
<polygon fill="#2a2d38" fill-opacity="0.501961" points="145,-16 184,9 54,7" />
<polygon fill="#ffffff" fill-opacity="0.501961" points="142,35 97,19 42,33" />
<polygon fill="#f9fefd" fill-opacity="0.501961" points="-4,28 -16,86 71,25" />
<polygon fill="#ffffff" fill-opacity="0.501961" points="56,13 -7,27 -4,10" />
<polygon fill="#161720" fill-opacity="0.501961" points="15,-16 18,9 -16,8" />
<polygon fill="#878d89" fill-opacity="0.501961" points="40,22 20,26 17,19" />
<polygon fill="#d3d7d3" fill-opacity="0.501961" points="228,46 165,47 211,59" />
<polygon fill="#4f4c45" fill-opacity="0.501961" points="68,141 118,140 72,161" />
<polygon fill="#ffffff" fill-opacity="0.501961" points="82,54 56,38 139,39" />
<polygon fill="#575c54" fill-opacity="0.501961" points="126,123 107,117 90,122" />
<polygon fill="#22221e" fill-opacity="0.501961" points="111,64 138,173 234,65" />
<polygon fill="#221f19" fill-opacity="0.501961" points="63,156 62,66 75,111" />
<polygon fill="#ffffff" fill-opacity="0.501961" points="138,63 134,47 187,63" />
<polygon fill="#13130f" fill-opacity="0.501961" points="78,86 62,74 112,76" />
<polygon fill="#ffffff" fill-opacity="0.501961" points="60,67 -16,82 60,173" />
<polygon fill="#494e45" fill-opacity="0.501961" points="121,65 152,75 86,74" />
<polygon fill="#aedec3" fill-opacity="0.501961" points="46,56 13,55 25,61" />
<polygon fill="#1a1512" fill-opacity="0.501961" points="104,105 115,121 68,111" />
<polygon fill="#7b7f7a" fill-opacity="0.501961" points="112,35 92,35 106,39" />
<polygon fill="#4f4f47" fill-opacity="0.501961" points="66,87 78,112 116,86" />
<polygon fill="#3a4244" fill-opacity="0.501961" points="32,-3 71,10 2,8" />
<polygon fill="#fafeff" fill-opacity="0.501961" points="236,17 271,110 237,173" />
<polygon fill="#727672" fill-opacity="0.501961" points="72,25 61,25 69,20" />
<polygon fill="#929591" fill-opacity="0.501961" points="86,37 72,33 56,38" />
<polygon fill="#fdfffe" fill-opacity="0.501961" points="162,48 247,49 212,63" />
<polygon fill="#afb4b0" fill-opacity="0.501961" points="132,48 144,44 157,48" />
<polygon fill="#ffffff" fill-opacity="0.501961" points="223,43 136,46 148,12" />
<polygon fill="#291b18" fill-opacity="0.501961" points="73,144 132,143 115,160" />
<polygon fill="#fdffff" fill-opacity="0.501961" points="25,22 2,10 55,10" />
<polygon fill="#fdffff" fill-opacity="0.501961" points="32,21 64,10 89,21" />
<polygon fill="#878a87" fill-opacity="0.501961" points="92,34 76,37 92,39" />
<polygon fill="#c6cac7" fill-opacity="0.501961" points="196,54 164,53 179,58" />
<polygon fill="#f8fcfc" fill-opacity="0.501961" points="64,35 145,33 80,14" />
<polygon fill="#bcc2be" fill-opacity="0.501961" points="131,59 112,53 150,54" />
<polygon fill="#b6bab6" fill-opacity="0.501961" points="85,53 72,59 104,59" />
<polygon fill="#b9beb9" fill-opacity="0.501961" points="42,68 33,64 19,68" />
<polygon fill="#7e8181" fill-opacity="0.501961" points="132,39 125,34 138,37" />
<polygon fill="#5c514b" fill-opacity="0.501961" points="84,74 109,66 62,67" />
<polygon fill="#b5bab6" fill-opacity="0.501961" points="233,36 210,35 222,39" />
<polygon fill="#29251e" fill-opacity="0.501961" points="105,78 72,68 130,68" />
<polygon fill="#676b64" fill-opacity="0.501961" points="85,122 76,118 101,117" />
<polygon fill="#ffffff" fill-opacity="0.501961" points="106,53 122,48 138,52" />
<polygon fill="#2c2f36" fill-opacity="0.501961" points="47,8 138,-16 225,9" />
<polygon fill="#21242b" fill-opacity="0.501961" points="251,9 217,-15 271,3" />
<polygon fill="#21211c" fill-opacity="0.501961" points="173,64 235,64 236,84" />
<polygon fill="#c4c7c5" fill-opacity="0.501961" points="215,51 228,56 202,55" />
<polygon fill="#cacfcb" fill-opacity="0.501961" points="82,47 102,51 106,45" />
<polygon fill="#c0c2be" fill-opacity="0.501961" points="21,40 43,41 31,44" />
<polygon fill="#ffffff" fill-opacity="0.501961" points="142,56 184,57 160,63" />
<polygon fill="#f5f8f9" fill-opacity="0.501961" points="226,9 260,123 261,9" />
<polygon fill="#ffffff" fill-opacity="0.501961" points="129,48 91,49 109,54" />
<polygon fill="#ffffff" fill-opacity="0.501961" points="63,63 31,57 25,66" />
<polygon fill="#f9fcfd" fill-opacity="0.501961" points="196,44 271,10 82,10" />
<polygon fill="#888c88" fill-opacity="0.501961" points="23,21 42,21 44,27" />
<polygon fill="#1d2019" fill-opacity="0.501961" points="61,65 63,76 76,87" />
<polygon fill="#6f726e" fill-opacity="0.501961" points="132,36 125,37 122,34" />
<polygon fill="#604c47" fill-opacity="0.501961" points="139,154 110,173 66,154" />
<polygon fill="#909495" fill-opacity="0.501961" points="19,7 23,3 17,3" />
<polygon fill="#fefefe" fill-opacity="0.501961" points="71,28 8,24 26,41" />
<polygon fill="#ffffff" fill-opacity="0.501961" points="59,173 59,89 -16,128" />
<polygon fill="#ffffff" fill-opacity="0.501961" points="169,63 117,63 143,56" />
<polygon fill="#8f928d" fill-opacity="0.501961" points="59,34 74,34 68,38" />
<polygon fill="#0a0d07" fill-opacity="0.501961" points="115,89 95,90 108,93" />
<polygon fill="#6c6f6c" fill-opacity="0.501961" points="59,20 61,25 55,20" />
<polygon fill="#6f766b" fill-opacity="0.501961" points="117,96 126,93 112,93" />
<polygon fill="#ffffff" fill-opacity="0.501961" points="190,54 214,63 163,62" />
<polygon fill="#ffffff" fill-opacity="0.501961" points="104,38 92,46 125,41" />
<polygon fill="#262823" fill-opacity="0.501961" points="62,122 115,123 61,138" />
<polygon fill="#ffffff" fill-opacity="0.501961" points="80,36 76,45 83,46" />
<polygon fill="#f5f8fa" fill-opacity="0.501961" points="-16,51 16,173 20,25" />
<polygon fill="#bec2bd" fill-opacity="0.501961" points="108,53 122,59 92,58" />
<polygon fill="#bdbfba" fill-opacity="0.501961" points="22,50 20,46 31,49" />
</g>
</svg>