<svg xmlns="http://www.w3.org/2000/svg" version="1.1" width="1024" height="632">
<rect x="0" y="0" width="1024" height="632" fill="#e4e6e1" />
<g transform="scale(4.000000) translate(0.5 0.5)">
<polygon fill="#000000" fill-opacity="0.501961" points="181,11 0,9 93,-16" />
<polygon fill="#000000" fill-opacity="0.501961" points="270,11 104,9 202,-16" />
<polygon fill="#000000" fill-opacity="0.501961" points="32,-16 -16,11 131,10" />
<polygon fill="#ffffff" fill-opacity="0.501961" points="254,173 261,9 -16,138" />
<polygon fill="#000001" fill-opacity="0.501961" points="271,9 138,10 227,-16" />
<polygon fill="#fffff7" fill-opacity="0.501961" points="31,12 229,11 72,173" />
<polygon fill="#dae7ac" fill-opacity="0.501961" points="182,32 -16,33 69,64" />
<polygon fill="#1c2330" fill-opacity="0.501961" points="202,11 40,6 131,-16" />
<polygon fill="#000003" fill-opacity="0.501961" points="81,-15 -10,11 0,-16" />
<polygon fill="#ffffff" fill-opacity="0.501961" points="266,12 153,127 271,155" />
<polygon fill="#ffffff" fill-opacity="0.501961" points="9,145 143,20 126,173" />
<polygon fill="#c5cac8" fill-opacity="0.501961" points="227,153 156,153 143,129" />
<polygon fill="#fcfcfc" fill-opacity="0.501961" points="-16,138 84,56 -16,62" />
<polygon fill="#6ec977" fill-opacity="0.501961" points="252,11 249,20 227,16" />
<polygon fill="#cacfce" fill-opacity="0.501961" points="199,73 143,71 160,98" />
<polygon fill="#afcd89" fill-opacity="0.501961" points="8,60 50,47 6,48" />
<polygon fill="#c2c6c8" fill-opacity="0.501961" points="144,50 194,51 154,61" />
<polygon fill="#c7daaf" fill-opacity="0.501961" points="114,55 57,40 6,56" />
<polygon fill="#262c36" fill-opacity="0.501961" points="144,9 271,3 184,-16" />
<polygon fill="#fbffff" fill-opacity="0.501961" points="-7,39 97,14 -3,11" />
<polygon fill="#ffffe9" fill-opacity="0.501961" points="19,38 89,42 46,51" />
<polygon fill="#2b2e36" fill-opacity="0.501961" points="146,-16 223,10 62,9" />
<polygon fill="#c6c9c7" fill-opacity="0.501961" points="59,128 25,128 11,115" />
<polygon fill="#ffffff" fill-opacity="0.501961" points="271,147 223,15 174,140" />
<polygon fill="#ced2d1" fill-opacity="0.501961" points="12,86 68,110 17,109" />
<polygon fill="#ffffed" fill-opacity="0.501961" points="85,45 128,30 180,46" />
<polygon fill="#cacecb" fill-opacity="0.501961" points="3,69 21,79 59,68" />
<polygon fill="#ced2d0" fill-opacity="0.501961" points="162,112 147,99 198,109" />
<polygon fill="#c5c9c6" fill-opacity="0.501961" points="167,137 195,130 152,129" />
<polygon fill="#ffffd2" fill-opacity="0.501961" points="221,25 271,41 166,42" />
<polygon fill="#bfd4a4" fill-opacity="0.501961" points="50,33 1,31 14,42" />
<polygon fill="#d2d6d4" fill-opacity="0.501961" points="188,94 141,80 208,79" />
<polygon fill="#ffffff" fill-opacity="0.501961" points="7,170 5,81 19,124" />
<polygon fill="#b1c99b" fill-opacity="0.501961" points="46,38 71,31 95,38" />
<polygon fill="#ffffff" fill-opacity="0.501961" points="5,77 121,122 115,80" />
<polygon fill="#c5cbc8" fill-opacity="0.501961" points="203,59 235,60 222,54" />
<polygon fill="#cfbb95" fill-opacity="0.501961" points="187,30 174,35 197,34" />
<polygon fill="#bbd0a6" fill-opacity="0.501961" points="73,57 38,47 109,47" />
<polygon fill="#dcdfdd" fill-opacity="0.501961" points="58,109 79,90 2,91" />
<polygon fill="#f9fdff" fill-opacity="0.501961" points="185,12 246,31 151,31" />
<polygon fill="#ffffff" fill-opacity="0.501961" points="140,140 27,154 104,173" />
<polygon fill="#ffffff" fill-opacity="0.501961" points="33,110 77,122 18,122" />
<polygon fill="#b3b7b5" fill-opacity="0.501961" points="170,155 141,154 170,165" />
<polygon fill="#cacdcc" fill-opacity="0.501961" points="48,148 6,147 16,157" />
<polygon fill="#acc898" fill-opacity="0.501961" points="105,39 84,34 112,33" />
<polygon fill="#ffffff" fill-opacity="0.501961" points="-1,97 -16,-16 7,38" />
<polygon fill="#ffffff" fill-opacity="0.501961" points="139,60 94,75 56,61" />
<polygon fill="#a7adab" fill-opacity="0.501961" points="5,26 20,27 25,22" />
<polygon fill="#8ed195" fill-opacity="0.501961" points="231,11 227,18 250,19" />
<polygon fill="#646c6c" fill-opacity="0.501961" points="149,26 145,27 142,25" />
<polygon fill="#1e222e" fill-opacity="0.501961" points="239,9 271,10 246,-15" />
<polygon fill="#ffffe0" fill-opacity="0.501961" points="107,35 112,61 181,35" />
<polygon fill="#dde0e1" fill-opacity="0.501961" points="75,67 108,78 37,77" />
<polygon fill="#f9fcff" fill-opacity="0.501961" points="47,31 158,22 99,11" />
<polygon fill="#ffffe9" fill-opacity="0.501961" points="100,40 45,39 72,47" />
<polygon fill="#ffffff" fill-opacity="0.501961" points="95,63 63,75 129,75" />
<polygon fill="#ffffff" fill-opacity="0.501961" points="168,79 268,76 196,59" />
<polygon fill="#f3f4f7" fill-opacity="0.501961" points="116,108 139,23 159,121" />
<polygon fill="#b0b6b1" fill-opacity="0.501961" points="73,127 64,129 56,126" />
<polygon fill="#c2c8c6" fill-opacity="0.501961" points="206,149 220,144 192,143" />
<polygon fill="#ffffff" fill-opacity="0.501961" points="107,97 40,97 121,75" />
<polygon fill="#a2a59f" fill-opacity="0.501961" points="203,107 210,109 197,109" />
<polygon fill="#fbfdff" fill-opacity="0.501961" points="18,12 -16,25 62,25" />
<polygon fill="#ffffeb" fill-opacity="0.501961" points="10,56 79,58 39,68" />
<polygon fill="#c2d7a9" fill-opacity="0.501961" points="108,57 75,56 115,46" />
<polygon fill="#dadcdb" fill-opacity="0.501961" points="202,60 174,52 152,60" />
<polygon fill="#ffffff" fill-opacity="0.501961" points="152,129 143,110 220,110" />
<polygon fill="#ffffff" fill-opacity="0.501961" points="157,103 225,106 184,92" />
<polygon fill="#ffffff" fill-opacity="0.501961" points="247,43 271,57 198,56" />
<polygon fill="#2c3037" fill-opacity="0.501961" points="112,-16 207,9 23,10" />
<polygon fill="#ffffe2" fill-opacity="0.501961" points="51,47 7,46 24,39" />
<polygon fill="#ffffff" fill-opacity="0.501961" points="109,173 122,99 54,99" />
<polygon fill="#ffffff" fill-opacity="0.501961" points="70,88 27,77 4,89" />
<polygon fill="#bcc1bd" fill-opacity="0.501961" points="183,70 195,73 175,74" />
<polygon fill="#747f85" fill-opacity="0.501961" points="17,1 24,6 17,9" />
<polygon fill="#ffffff" fill-opacity="0.501961" points="189,82 271,169 271,79" />
<polygon fill="#ffffff" fill-opacity="0.501961" points="188,59 212,73 143,68" />
<polygon fill="#f9fcff" fill-opacity="0.501961" points="111,11 186,32 181,11" />
<polygon fill="#808889" fill-opacity="0.501961" points="227,6 228,3 236,5" />
<polygon fill="#fdfefe" fill-opacity="0.501961" points="205,131 194,143 150,132" />
<polygon fill="#a1d7c0" fill-opacity="0.501961" points="216,19 222,15 202,15" />
<polygon fill="#d9baa2" fill-opacity="0.501961" points="160,30 178,35 151,35" />
<polygon fill="#f7f9fe" fill-opacity="0.501961" points="172,17 209,31 256,20" />
<polygon fill="#ffffff" fill-opacity="0.501961" points="253,153 251,173 181,155" />
<polygon fill="#ffffff" fill-opacity="0.501961" points="-9,146 58,127 130,147" />
<polygon fill="#c2dca9" fill-opacity="0.501961" points="44,47 18,57 63,56" />
<polygon fill="#ffffe6" fill-opacity="0.501961" points="57,49 77,49 68,52" />
<polygon fill="#ffffff" fill-opacity="0.501961" points="221,49 155,50 187,39" />
<polygon fill="#c8cbc9" fill-opacity="0.501961" points="72,152 61,146 49,148" />
<polygon fill="#ffffff" fill-opacity="0.501961" points="99,148 37,150 31,170" />
<polygon fill="#c1c6c8" fill-opacity="0.501961" points="122,23 110,26 131,27" />
<polygon fill="#d0d2d0" fill-opacity="0.501961" points="248,60 237,55 223,59" />
<polygon fill="#bacca5" fill-opacity="0.501961" points="63,33 39,32 38,39" />
<polygon fill="#202633" fill-opacity="0.501961" points="-16,9 21,10 -9,-16" />
<polygon fill="#ffffff" fill-opacity="0.501961" points="200,52 183,58 171,53" />
<polygon fill="#adb1af" fill-opacity="0.501961" points="199,49 206,52 190,52" />
<polygon fill="#c7cdcb" fill-opacity="0.501961" points="253,27 230,26 240,22" />
<polygon fill="#ffffff" fill-opacity="0.501961" points="-4,68 46,67 31,57" />
<polygon fill="#c8cbc9" fill-opacity="0.501961" points="157,93 162,100 149,98" />
<polygon fill="#cfd2d1" fill-opacity="0.501961" points="240,156 220,150 254,151" />
</g>
</svg>