<svg xmlns="http://www.w3.org/2000/svg" version="1.1" width="1024" height="644">
<rect x="0" y="0" width="1024" height="644" fill="#d6e3e5" />
<g transform="scale(4.000000) translate(0.5 0.5)">
<polygon fill="#000000" fill-opacity="0.501961" points="196,-16 107,8 271,9" />
<polygon fill="#000000" fill-opacity="0.501961" points="167,6 80,-16 81,9" />
<polygon fill="#ffffff" fill-opacity="0.501961" points="-15,167 2,-16 162,39" />
<polygon fill="#93d8ff" fill-opacity="0.501961" points="222,165 197,97 4,154" />
<polygon fill="#001a34" fill-opacity="0.501961" points="129,8 271,7 213,-16" />
<polygon fill="#ffffff" fill-opacity="0.501961" points="78,-16 -16,94 80,176" />
<polygon fill="#00a463" fill-opacity="0.501961" points="-3,149 26,158 56,148" />
<polygon fill="#f6ecd7" fill-opacity="0.501961" points="271,9 255,176 164,10" />
<polygon fill="#e1eacd" fill-opacity="0.501961" points="209,101 80,115 80,9" />
<polygon fill="#143048" fill-opacity="0.501961" points="80,-16 163,8 82,7" />
<polygon fill="#a4d8ff" fill-opacity="0.501961" points="221,105 78,118 99,176" />
<polygon fill="#ffffff" fill-opacity="0.501961" points="-7,143 81,152 77,106" />
<polygon fill="#91d6ff" fill-opacity="0.501961" points="169,83 162,23 187,72" />
<polygon fill="#ffffff" fill-opacity="0.501961" points="76,155 66,176 -12,156" />
<polygon fill="#00a46f" fill-opacity="0.501961" points="41,147 36,154 54,155" />
<polygon fill="#97d9ff" fill-opacity="0.501961" points="175,34 101,17 127,8" />
<polygon fill="#fffeff" fill-opacity="0.501961" points="71,114 80,-2 -16,-3" />
<polygon fill="#c0eaae" fill-opacity="0.501961" points="135,56 125,106 157,102" />
<polygon fill="#06ac83" fill-opacity="0.501961" points="34,154 9,148 2,155" />
<polygon fill="#e9efef" fill-opacity="0.501961" points="128,71 113,112 -16,121" />
<polygon fill="#ffffff" fill-opacity="0.501961" points="6,176 2,55 -16,115" />
<polygon fill="#324452" fill-opacity="0.501961" points="120,-16 175,8 83,7" />
<polygon fill="#97cc85" fill-opacity="0.501961" points="234,106 230,115 217,111" />
<polygon fill="#ebe8dd" fill-opacity="0.501961" points="164,158 246,176 235,142" />
<polygon fill="#aadaff" fill-opacity="0.501961" points="118,176 93,116 225,133" />
<polygon fill="#e5e6d9" fill-opacity="0.501961" points="162,96 87,11 158,37" />
<polygon fill="#a5d7fd" fill-opacity="0.501961" points="186,28 166,34 163,76" />
<polygon fill="#ffffff" fill-opacity="0.501961" points="45,127 67,148 -16,148" />
<polygon fill="#051621" fill-opacity="0.501961" points="271,-16 271,8 206,-15" />
<polygon fill="#e6e3d5" fill-opacity="0.501961" points="225,95 139,115 197,63" />
<polygon fill="#cde5e1" fill-opacity="0.501961" points="12,110 -16,98 54,97" />
<polygon fill="#466038" fill-opacity="0.501961" points="171,12 170,4 176,7" />
<polygon fill="#ffffff" fill-opacity="0.501961" points="51,114 1,99 73,100" />
<polygon fill="#ffffff" fill-opacity="0.501961" points="51,176 -7,156 77,157" />
<polygon fill="#3fbd9e" fill-opacity="0.501961" points="8,156 29,148 48,156" />
<polygon fill="#b6e9a4" fill-opacity="0.501961" points="141,73 144,113 154,79" />
<polygon fill="#a8e991" fill-opacity="0.501961" points="127,108 129,92 118,104" />
<polygon fill="#acdcff" fill-opacity="0.501961" points="170,27 106,8 122,29" />
<polygon fill="#9ddfd2" fill-opacity="0.501961" points="78,116 51,116 69,111" />
<polygon fill="#91ac43" fill-opacity="0.501961" points="195,38 192,43 198,42" />
<polygon fill="#f4efe6" fill-opacity="0.501961" points="176,30 241,16 128,10" />
<polygon fill="#aadaff" fill-opacity="0.501961" points="218,161 215,138 153,121" />
<polygon fill="#fffafa" fill-opacity="0.501961" points="69,100 81,156 44,175" />
<polygon fill="#aadaff" fill-opacity="0.501961" points="140,113 80,176 81,122" />
<polygon fill="#9b9a9c" fill-opacity="0.501961" points="254,159 233,158 230,176" />
<polygon fill="#9d9a99" fill-opacity="0.501961" points="9,5 5,7 17,8" />
<polygon fill="#89a21e" fill-opacity="0.501961" points="162,84 158,83 163,82" />
<polygon fill="#a79f9a" fill-opacity="0.501961" points="61,154 54,151 70,152" />
<polygon fill="#c5e6e1" fill-opacity="0.501961" points="3,115 57,116 24,106" />
<polygon fill="#8dac34" fill-opacity="0.501961" points="227,21 232,22 228,24" />
<polygon fill="#fbecf3" fill-opacity="0.501961" points="130,92 139,112 142,91" />
<polygon fill="#ffffff" fill-opacity="0.501961" points="49,101 77,113 5,114" />
<polygon fill="#8cd7c7" fill-opacity="0.501961" points="75,97 73,101 60,98" />
<polygon fill="#6695c4" fill-opacity="0.501961" points="249,37 250,33 263,33" />
<polygon fill="#a1b351" fill-opacity="0.501961" points="100,25 94,27 93,23" />
<polygon fill="#a0d2e5" fill-opacity="0.501961" points="219,103 202,112 212,91" />
<polygon fill="#f2eee5" fill-opacity="0.501961" points="180,51 195,94 225,29" />
<polygon fill="#b0c3bd" fill-opacity="0.501961" points="160,103 178,108 190,100" />
<polygon fill="#e9edeb" fill-opacity="0.501961" points="240,141 214,104 201,125" />
<polygon fill="#b1b0b0" fill-opacity="0.501961" points="56,43 48,46 43,43" />
<polygon fill="#bfbcbc" fill-opacity="0.501961" points="13,71 2,72 15,75" />
<polygon fill="#68797f" fill-opacity="0.501961" points="178,0 212,-16 255,0" />
<polygon fill="#fffcfe" fill-opacity="0.501961" points="11,14 73,-16 22,93" />
<polygon fill="#a7dbff" fill-opacity="0.501961" points="185,62 178,84 158,60" />
<polygon fill="#79a1cc" fill-opacity="0.501961" points="252,127 242,128 255,123" />
<polygon fill="#9abfad" fill-opacity="0.501961" points="185,48 178,45 186,40" />
<polygon fill="#a9a7a6" fill-opacity="0.501961" points="4,20 12,22 15,19" />
<polygon fill="#d7d8b4" fill-opacity="0.501961" points="206,91 186,92 212,71" />
<polygon fill="#fffeff" fill-opacity="0.501961" points="-16,100 2,51 4,166" />
<polygon fill="#63757d" fill-opacity="0.501961" points="76,0 176,-1 124,-15" />
<polygon fill="#aaa8a8" fill-opacity="0.501961" points="37,130 30,129 26,132" />
<polygon fill="#a6c5b9" fill-opacity="0.501961" points="204,27 198,32 204,40" />
<polygon fill="#eeeee7" fill-opacity="0.501961" points="189,85 143,114 168,78" />
<polygon fill="#b5b0af" fill-opacity="0.501961" points="22,125 18,122 8,124" />
<polygon fill="#11ad8a" fill-opacity="0.501961" points="50,148 50,155 25,148" />
<polygon fill="#a3daff" fill-opacity="0.501961" points="198,151 230,127 209,133" />
<polygon fill="#e6e9df" fill-opacity="0.501961" points="159,85 83,10 166,51" />
<polygon fill="#7d9a00" fill-opacity="0.501961" points="180,159 206,172 167,168" />
<polygon fill="#bebbba" fill-opacity="0.501961" points="52,127 57,132 49,131" />
<polygon fill="#efece9" fill-opacity="0.501961" points="231,19 247,91 271,55" />
<polygon fill="#80d2c1" fill-opacity="0.501961" points="20,99 27,96 36,99" />
<polygon fill="#fefdfe" fill-opacity="0.501961" points="14,34 72,95 21,98" />
<polygon fill="#efebe4" fill-opacity="0.501961" points="128,21 130,88 104,117" />
<polygon fill="#8dd8c7" fill-opacity="0.501961" points="7,95 18,99 4,99" />
<polygon fill="#c0b0b2" fill-opacity="0.501961" points="17,109 6,106 23,106" />
<polygon fill="#f1ecdb" fill-opacity="0.501961" points="222,133 218,164 260,147" />
<polygon fill="#bebfbf" fill-opacity="0.501961" points="37,46 28,46 26,42" />
<polygon fill="#7cd1bf" fill-opacity="0.501961" points="58,96 62,99 50,99" />
<polygon fill="#addbff" fill-opacity="0.501961" points="213,118 189,102 137,136" />
<polygon fill="#baccc5" fill-opacity="0.501961" points="5,37 5,46 14,37" />
<polygon fill="#fcfbfd" fill-opacity="0.501961" points="38,39 7,97 65,97" />
<polygon fill="#253846" fill-opacity="0.501961" points="109,8 80,0 131,0" />
<polygon fill="#8db39d" fill-opacity="0.501961" points="136,56 138,59 132,64" />
<polygon fill="#9bd9ff" fill-opacity="0.501961" points="171,33 170,42 191,30" />
<polygon fill="#6596c9" fill-opacity="0.501961" points="230,89 234,85 235,88" />
<polygon fill="#b6b8bb" fill-opacity="0.501961" points="234,50 244,55 230,54" />
<polygon fill="#efeae5" fill-opacity="0.501961" points="118,111 94,81 76,120" />
<polygon fill="#ffffff" fill-opacity="0.501961" points="4,-12 5,76 -16,54" />
<polygon fill="#a1daff" fill-opacity="0.501961" points="133,9 109,19 103,9" />
<polygon fill="#97d8ff" fill-opacity="0.501961" points="201,174 182,152 212,165" />
</g>
</svg>