<svg xmlns="http://www.w3.org/2000/svg" version="1.1" width="1024" height="644">
<rect x="0" y="0" width="1024" height="644" fill="#dfe8e8" />
<g transform="scale(4.000000) translate(0.5 0.5)">
<polygon fill="#000000" fill-opacity="0.501961" points="249,9 161,-16 68,9" />
<polygon fill="#00000f" fill-opacity="0.501961" points="223,-16 271,8 138,7" />
<polygon fill="#ffffff" fill-opacity="0.501961" points="-16,176 -6,-16 128,20" />
<polygon fill="#00a274" fill-opacity="0.501961" points="-7,155 29,145 57,156" />
<polygon fill="#000722" fill-opacity="0.501961" points="81,8 161,5 81,-16" />
<polygon fill="#8ad3ff" fill-opacity="0.501961" points="81,79 149,88 81,176" />
<polygon fill="#ffffff" fill-opacity="0.501961" points="271,43 221,176 165,32" />
<polygon fill="#ffffff" fill-opacity="0.501961" points="79,-16 -16,145 81,151" />
<polygon fill="#00162a" fill-opacity="0.501961" points="177,-8 266,11 271,-16" />
<polygon fill="#88c8ef" fill-opacity="0.501961" points="80,31 81,8 118,8" />
<polygon fill="#f8f7ea" fill-opacity="0.501961" points="127,98 111,161 271,128" />
<polygon fill="#18b493" fill-opacity="0.501961" points="50,146 47,157 10,153" />
<polygon fill="#a9d3d1" fill-opacity="0.501961" points="116,33 144,98 165,94" />
<polygon fill="#f1efdb" fill-opacity="0.501961" points="269,9 153,67 112,8" />
<polygon fill="#234152" fill-opacity="0.501961" points="77,8 121,-16 206,6" />
<polygon fill="#ffffff" fill-opacity="0.501961" points="81,119 78,148 -16,148" />
<polygon fill="#00a078" fill-opacity="0.501961" points="8,155 26,149 4,149" />
<polygon fill="#fcfcfe" fill-opacity="0.501961" points="183,133 185,23 269,151" />
<polygon fill="#ffffff" fill-opacity="0.501961" points="14,-16 16,82 79,7" />
<polygon fill="#a2d7ff" fill-opacity="0.501961" points="82,176 125,126 81,102" />
<polygon fill="#e3e8d8" fill-opacity="0.501961" points="84,23 143,10 79,74" />
<polygon fill="#0073ca" fill-opacity="0.501961" points="211,52 217,54 214,46" />
<polygon fill="#e0ebea" fill-opacity="0.501961" points="5,97 -11,176 38,97" />
<polygon fill="#ffffff" fill-opacity="0.501961" points="55,153 140,176 2,176" />
<polygon fill="#d5e1cb" fill-opacity="0.501961" points="115,137 129,117 190,165" />
<polygon fill="#ffffff" fill-opacity="0.501961" points="245,28 245,123 220,40" />
<polygon fill="#fbf8ed" fill-opacity="0.501961" points="117,70 132,85 94,88" />
<polygon fill="#94d6ff" fill-opacity="0.501961" points="132,176 160,155 150,146" />
<polygon fill="#2b3c49" fill-opacity="0.501961" points="77,-13 82,6 136,8" />
<polygon fill="#ecefdc" fill-opacity="0.501961" points="184,110 176,28 147,141" />
<polygon fill="#b7d397" fill-opacity="0.501961" points="131,83 131,65 148,85" />
<polygon fill="#ffffff" fill-opacity="0.501961" points="5,175 -16,125 3,65" />
<polygon fill="#83c2d8" fill-opacity="0.501961" points="122,47 127,31 136,29" />
<polygon fill="#767b82" fill-opacity="0.501961" points="218,59 209,61 225,62" />
<polygon fill="#ffffff" fill-opacity="0.501961" points="-4,156 53,176 49,156" />
<polygon fill="#efeedd" fill-opacity="0.501961" points="271,126 120,169 251,168" />
<polygon fill="#9e9d9b" fill-opacity="0.501961" points="208,67 191,68 199,65" />
<polygon fill="#ace2d7" fill-opacity="0.501961" points="39,99 65,101 60,95" />
<polygon fill="#f7f5f2" fill-opacity="0.501961" points="138,78 131,18 157,37" />
<polygon fill="#08a884" fill-opacity="0.501961" points="51,155 34,151 50,148" />
<polygon fill="#2b4555" fill-opacity="0.501961" points="267,5 189,9 169,-16" />
<polygon fill="#fafafc" fill-opacity="0.501961" points="-16,149 80,149 66,98" />
<polygon fill="#bad795" fill-opacity="0.501961" points="235,16 212,38 226,33" />
<polygon fill="#94d8cb" fill-opacity="0.501961" points="48,115 26,114 36,118" />
<polygon fill="#81a224" fill-opacity="0.501961" points="140,49 145,53 146,51" />
<polygon fill="#5e626a" fill-opacity="0.501961" points="231,74 224,74 226,77" />
<polygon fill="#baca82" fill-opacity="0.501961" points="167,49 167,42 156,40" />
<polygon fill="#addbff" fill-opacity="0.501961" points="129,101 80,68 81,166" />
<polygon fill="#fffcf7" fill-opacity="0.501961" points="218,76 224,30 271,0" />
<polygon fill="#aec9a9" fill-opacity="0.501961" points="176,53 169,72 176,70" />
<polygon fill="#94ae1e" fill-opacity="0.501961" points="248,39 243,40 250,36" />
<polygon fill="#70ccb9" fill-opacity="0.501961" points="49,115 60,118 68,115" />
<polygon fill="#99c2b2" fill-opacity="0.501961" points="140,71 154,71 153,61" />
<polygon fill="#82a320" fill-opacity="0.501961" points="145,132 147,135 141,131" />
<polygon fill="#8aa92d" fill-opacity="0.501961" points="188,24 188,27 195,28" />
<polygon fill="#5c8700" fill-opacity="0.501961" points="271,19 271,39 254,32" />
<polygon fill="#90ac33" fill-opacity="0.501961" points="109,31 110,36 113,31" />
<polygon fill="#b7bcbf" fill-opacity="0.501961" points="207,81 202,73 195,82" />
<polygon fill="#fffdff" fill-opacity="0.501961" points="48,132 -8,116 71,116" />
<polygon fill="#ffffff" fill-opacity="0.501961" points="213,59 163,44 212,39" />
<polygon fill="#8fd0ff" fill-opacity="0.501961" points="86,38 80,44 82,23" />
<polygon fill="#f5f4ec" fill-opacity="0.501961" points="89,79 94,46 140,16" />
<polygon fill="#fff9f0" fill-opacity="0.501961" points="144,79 202,79 156,66" />
<polygon fill="#8dab37" fill-opacity="0.501961" points="198,36 197,32 201,33" />
<polygon fill="#adc165" fill-opacity="0.501961" points="128,149 130,152 121,156" />
<polygon fill="#fefbfe" fill-opacity="0.501961" points="81,-16 79,94 5,97" />
<polygon fill="#7fa326" fill-opacity="0.501961" points="128,20 123,23 130,22" />
<polygon fill="#d5dcb6" fill-opacity="0.501961" points="173,13 135,15 145,23" />
<polygon fill="#98b656" fill-opacity="0.501961" points="213,26 204,26 207,23" />
<polygon fill="#2f4150" fill-opacity="0.501961" points="82,8 130,-16 216,7" />
<polygon fill="#9dd8ff" fill-opacity="0.501961" points="119,56 129,50 139,66" />
<polygon fill="#fff4e1" fill-opacity="0.501961" points="142,107 133,98 114,126" />
<polygon fill="#8cab2f" fill-opacity="0.501961" points="181,86 184,89 178,88" />
<polygon fill="#b5c27a" fill-opacity="0.501961" points="153,28 163,28 166,23" />
<polygon fill="#fffbff" fill-opacity="0.501961" points="154,23 156,12 137,10" />
<polygon fill="#bab9b8" fill-opacity="0.501961" points="227,64 240,67 223,68" />
<polygon fill="#87d8c5" fill-opacity="0.501961" points="71,100 63,97 78,98" />
<polygon fill="#b8cc89" fill-opacity="0.501961" points="137,125 134,130 119,129" />
<polygon fill="#a4e1d4" fill-opacity="0.501961" points="22,95 38,99 6,100" />
<polygon fill="#fdfbfd" fill-opacity="0.501961" points="70,98 11,98 20,-15" />
<polygon fill="#abe2d6" fill-opacity="0.501961" points="0,113 25,116 8,119" />
<polygon fill="#f2f5ef" fill-opacity="0.501961" points="93,176 140,140 129,124" />
<polygon fill="#6295d0" fill-opacity="0.501961" points="166,112 159,112 161,116" />
<polygon fill="#e7ecd9" fill-opacity="0.501961" points="246,61 247,145 271,80" />
<polygon fill="#f1efec" fill-opacity="0.501961" points="198,35 163,16 160,46" />
<polygon fill="#96b54e" fill-opacity="0.501961" points="240,149 233,148 235,151" />
<polygon fill="#b9cca8" fill-opacity="0.501961" points="150,81 160,97 159,79" />
<polygon fill="#bec149" fill-opacity="0.501961" points="112,12 105,14 110,9" />
<polygon fill="#a7c6b3" fill-opacity="0.501961" points="155,46 152,52 161,57" />
<polygon fill="#749e0d" fill-opacity="0.501961" points="133,16 137,14 139,15" />
<polygon fill="#1bb292" fill-opacity="0.501961" points="5,149 15,148 17,156" />
<polygon fill="#a5d7ff" fill-opacity="0.501961" points="120,103 158,91 83,88" />
<polygon fill="#8aad44" fill-opacity="0.501961" points="156,16 160,15 159,18" />
<polygon fill="#f9f6f8" fill-opacity="0.501961" points="165,80 178,89 163,125" />
<polygon fill="#6f9bc8" fill-opacity="0.501961" points="165,64 159,66 166,68" />
<polygon fill="#bbbaba" fill-opacity="0.501961" points="60,130 45,129 53,132" />
<polygon fill="#73a026" fill-opacity="0.501961" points="232,18 234,20 234,16" />
<polygon fill="#a4a4a3" fill-opacity="0.501961" points="54,44 51,46 44,43" />
<polygon fill="#ffffff" fill-opacity="0.501961" points="79,149 77,176 53,162" />
<polygon fill="#ffffff" fill-opacity="0.501961" points="7,99 72,99 61,115" />
</g>
</svg>