<svg xmlns="http://www.w3.org/2000/svg" version="1.1" width="1024" height="644">
<rect x="0" y="0" width="1024" height="644" fill="#e8e9e9" />
<g transform="scale(4.000000) translate(0.5 0.5)">
<polygon fill="#000000" fill-opacity="0.501961" points="153,-16 236,6 70,7" />
<polygon fill="#000000" fill-opacity="0.501961" points="129,8 40,-16 -16,8" />
<polygon fill="#000000" fill-opacity="0.501961" points="126,7 271,8 213,-16" />
<polygon fill="#000008" fill-opacity="0.501961" points="-16,7 142,5 61,-16" />
<polygon fill="#ffffff" fill-opacity="0.501961" points="-16,7 60,176 271,14" />
<polygon fill="#ffffff" fill-opacity="0.501961" points="61,176 264,164 271,16" />
<polygon fill="#00190f" fill-opacity="0.501961" points="182,-16 248,13 271,-16" />
<polygon fill="#dddfdd" fill-opacity="0.501961" points="205,120 128,7 126,140" />
<polygon fill="#212833" fill-opacity="0.501961" points="51,7 201,7 136,-16" />
<polygon fill="#ffffff" fill-opacity="0.501961" points="122,176 127,72 -16,99" />
<polygon fill="#a1efa6" fill-opacity="0.501961" points="230,7 264,8 240,14" />
<polygon fill="#282f35" fill-opacity="0.501961" points="46,-16 -16,6 119,7" />
<polygon fill="#dce0dd" fill-opacity="0.501961" points="36,122 87,108 127,122" />
<polygon fill="#c5cbc6" fill-opacity="0.501961" points="30,77 57,69 6,69" />
<polygon fill="#201d2e" fill-opacity="0.501961" points="271,6 213,-16 210,7" />
<polygon fill="#ffffff" fill-opacity="0.501961" points="55,116 126,8 127,117" />
<polygon fill="#d8d9d6" fill-opacity="0.501961" points="149,75 219,61 131,55" />
<polygon fill="#f2f7f8" fill-opacity="0.501961" points="146,25 211,7 81,7" />
<polygon fill="#d0d6d1" fill-opacity="0.501961" points="133,19 133,40 184,41" />
<polygon fill="#f8f8f7" fill-opacity="0.501961" points="147,64 219,176 271,64" />
<polygon fill="#cbd0cc" fill-opacity="0.501961" points="96,77 72,70 122,69" />
<polygon fill="#d6d8d6" fill-opacity="0.501961" points="141,112 215,98 133,91" />
<polygon fill="#ffffff" fill-opacity="0.501961" points="121,73 98,118 32,74" />
<polygon fill="#e0e4e0" fill-opacity="0.501961" points="-10,41 82,42 -15,67" />
<polygon fill="#ffffff" fill-opacity="0.501961" points="121,47 64,70 10,45" />
<polygon fill="#58b55e" fill-opacity="0.501961" points="252,12 239,13 236,6" />
<polygon fill="#ffffff" fill-opacity="0.501961" points="34,121 183,171 45,176" />
<polygon fill="#ffffff" fill-opacity="0.501961" points="139,36 168,28 192,37" />
<polygon fill="#d0d4d0" fill-opacity="0.501961" points="41,30 9,21 4,30" />
<polygon fill="#1ca525" fill-opacity="0.501961" points="226,13 227,11 225,8" />
<polygon fill="#2d3137" fill-opacity="0.501961" points="184,7 119,-16 41,7" />
<polygon fill="#dee1df" fill-opacity="0.501961" points="193,141 136,107 138,142" />
<polygon fill="#bac0bb" fill-opacity="0.501961" points="85,31 70,26 99,26" />
<polygon fill="#d1d6d1" fill-opacity="0.501961" points="34,94 46,85 4,85" />
<polygon fill="#ffffff" fill-opacity="0.501961" points="179,98 135,85 217,87" />
<polygon fill="#d5d9d5" fill-opacity="0.501961" points="120,42 92,49 66,40" />
<polygon fill="#ffffff" fill-opacity="0.501961" points="269,60 154,60 261,26" />
<polygon fill="#fafbfb" fill-opacity="0.501961" points="189,115 236,101 137,101" />
<polygon fill="#ffffff" fill-opacity="0.501961" points="69,8 9,25 124,26" />
<polygon fill="#d0d5d0" fill-opacity="0.501961" points="2,119 48,118 24,126" />
<polygon fill="#b8bcba" fill-opacity="0.501961" points="148,62 159,56 136,55" />
<polygon fill="#ffffff" fill-opacity="0.501961" points="38,125 -6,124 17,132" />
<polygon fill="#b1b8b4" fill-opacity="0.501961" points="53,143 73,143 63,146" />
<polygon fill="#c8ccc7" fill-opacity="0.501961" points="58,25 42,30 74,29" />
<polygon fill="#b1b5b1" fill-opacity="0.501961" points="144,92 164,92 160,98" />
<polygon fill="#ffffff" fill-opacity="0.501961" points="8,85 35,79 -16,74" />
<polygon fill="#dfe2e0" fill-opacity="0.501961" points="110,73 147,57 182,74" />
<polygon fill="#bbc1be" fill-opacity="0.501961" points="26,11 14,14 4,9" />
<polygon fill="#ffffff" fill-opacity="0.501961" points="126,41 105,28 59,40" />
<polygon fill="#cbd0cc" fill-opacity="0.501961" points="81,73 44,73 64,67" />
<polygon fill="#91958f" fill-opacity="0.501961" points="142,92 144,95 132,93" />
<polygon fill="#ffffff" fill-opacity="0.501961" points="151,42 129,54 172,55" />
<polygon fill="#ffffff" fill-opacity="0.501961" points="129,58 130,92 144,90" />
<polygon fill="#ffffff" fill-opacity="0.501961" points="128,150 129,94 139,134" />
<polygon fill="#ffffff" fill-opacity="0.501961" points="22,68 109,43 120,69" />
<polygon fill="#e0e3e0" fill-opacity="0.501961" points="98,48 124,56 69,56" />
<polygon fill="#ffffff" fill-opacity="0.501961" points="139,94 153,98 167,94" />
<polygon fill="#dce0dd" fill-opacity="0.501961" points="37,95 56,102 12,102" />
<polygon fill="#d7dbd8" fill-opacity="0.501961" points="175,47 199,54 217,47" />
<polygon fill="#ffffff" fill-opacity="0.501961" points="236,8 210,25 239,25" />
<polygon fill="#cbcfcb" fill-opacity="0.501961" points="151,26 176,27 141,35" />
<polygon fill="#ffffff" fill-opacity="0.501961" points="-1,100 57,99 30,91" />
<polygon fill="#d8dbd9" fill-opacity="0.501961" points="170,49 129,36 125,48" />
<polygon fill="#c2c7c3" fill-opacity="0.501961" points="242,47 231,51 217,47" />
<polygon fill="#cdd1cc" fill-opacity="0.501961" points="41,130 21,137 5,131" />
<polygon fill="#dfe3e0" fill-opacity="0.501961" points="46,49 70,55 26,56" />
<polygon fill="#ffffff" fill-opacity="0.501961" points="123,123 28,124 135,166" />
<polygon fill="#ffffff" fill-opacity="0.501961" points="182,10 130,26 237,25" />
<polygon fill="#ffffff" fill-opacity="0.501961" points="206,60 245,49 168,50" />
<polygon fill="#cacdca" fill-opacity="0.501961" points="248,38 235,34 224,38" />
<polygon fill="#ffffff" fill-opacity="0.501961" points="68,54 42,46 21,53" />
<polygon fill="#ffffff" fill-opacity="0.501961" points="216,28 247,37 185,37" />
<polygon fill="#797f7e" fill-opacity="0.501961" points="49,5 54,4 51,1" />
<polygon fill="#ffffff" fill-opacity="0.501961" points="53,30 14,40 88,41" />
<polygon fill="#d3cecb" fill-opacity="0.501961" points="207,102 201,96 229,96" />
<polygon fill="#fdfcfc" fill-opacity="0.501961" points="188,140 146,140 191,124" />
<polygon fill="#ffffff" fill-opacity="0.501961" points="94,45 113,53 77,52" />
<polygon fill="#ffffff" fill-opacity="0.501961" points="271,156 135,157 201,176" />
<polygon fill="#f3f6f2" fill-opacity="0.501961" points="7,166 4,22 -16,88" />
<polygon fill="#282a33" fill-opacity="0.501961" points="50,7 44,-16 -16,4" />
<polygon fill="#c5d2c9" fill-opacity="0.501961" points="152,37 172,43 187,37" />
<polygon fill="#ffffff" fill-opacity="0.501961" points="187,47 163,40 138,47" />
<polygon fill="#cfd1cf" fill-opacity="0.501961" points="-2,58 33,58 16,52" />
<polygon fill="#bdc2bd" fill-opacity="0.501961" points="125,118 104,118 116,122" />
<polygon fill="#b3b2b3" fill-opacity="0.501961" points="127,75 128,89 130,81" />
<polygon fill="#c7cdc8" fill-opacity="0.501961" points="209,60 226,61 208,66" />
<polygon fill="#c6cac6" fill-opacity="0.501961" points="2,41 26,42 12,46" />
<polygon fill="#ffffff" fill-opacity="0.501961" points="49,138 30,143 11,137" />
<polygon fill="#c5cac5" fill-opacity="0.501961" points="64,102 69,99 54,100" />
<polygon fill="#2b2f37" fill-opacity="0.501961" points="241,7 106,7 159,-16" />
<polygon fill="#dde0dd" fill-opacity="0.501961" points="174,154 147,148 128,156" />
<polygon fill="#c0c5c0" fill-opacity="0.501961" points="218,29 209,27 227,26" />
<polygon fill="#c7ccc7" fill-opacity="0.501961" points="8,156 20,176 40,156" />
<polygon fill="#ffffff" fill-opacity="0.501961" points="181,29 163,37 146,31" />
<polygon fill="#ffffff" fill-opacity="0.501961" points="230,82 183,96 271,96" />
<polygon fill="#c6cac6" fill-opacity="0.501961" points="113,118 77,118 95,123" />
<polygon fill="#ffffff" fill-opacity="0.501961" points="253,9 271,4 251,65" />
<polygon fill="#b3b2b3" fill-opacity="0.501961" points="128,102 125,120 129,112" />
<polygon fill="#d7dad8" fill-opacity="0.501961" points="176,78 193,84 156,84" />
<polygon fill="#c1c5c1" fill-opacity="0.501961" points="217,36 209,39 200,37" />
</g>
</svg>