<svg xmlns="http://www.w3.org/2000/svg" version="1.1" width="1024" height="632">
<rect x="0" y="0" width="1024" height="632" fill="#dddfd6" />
<g transform="scale(4.000000) translate(0.5 0.5)">
<polygon fill="#000000" fill-opacity="0.501961" points="-16,10 172,11 79,-16" />
<polygon fill="#000000" fill-opacity="0.501961" points="191,-16 271,10 95,11" />
<polygon fill="#000009" fill-opacity="0.501961" points="40,-16 140,11 -16,11" />
<polygon fill="#ffffff" fill-opacity="0.501961" points="271,80 -16,137 250,173" />
<polygon fill="#000009" fill-opacity="0.501961" points="133,10 271,11 231,-16" />
<polygon fill="#ffffff" fill-opacity="0.501961" points="271,13 -16,12 126,88" />
<polygon fill="#dce3aa" fill-opacity="0.501961" points="-16,95 153,44 271,90" />
<polygon fill="#ffffff" fill-opacity="0.501961" points="144,73 -16,139 135,164" />
<polygon fill="#ffffff" fill-opacity="0.501961" points="75,12 225,45 -16,57" />
<polygon fill="#ffffff" fill-opacity="0.501961" points="257,22 131,44 256,57" />
<polygon fill="#232834" fill-opacity="0.501961" points="44,10 134,-16 213,11" />
<polygon fill="#dfca9c" fill-opacity="0.501961" points="9,87 115,56 6,57" />
<polygon fill="#000000" fill-opacity="0.501961" points="-16,9 -16,-16 38,-6" />
<polygon fill="#ffffff" fill-opacity="0.501961" points="116,125 263,119 271,168" />
<polygon fill="#61c26b" fill-opacity="0.501961" points="249,24 249,16 222,18" />
<polygon fill="#c3e0ab" fill-opacity="0.501961" points="270,56 168,96 142,56" />
<polygon fill="#fffff9" fill-opacity="0.501961" points="152,13 120,165 110,12" />
<polygon fill="#cbd0ce" fill-opacity="0.501961" points="27,119 120,118 92,96" />
<polygon fill="#d0d7d1" fill-opacity="0.501961" points="146,119 145,86 256,119" />
<polygon fill="#ffffff" fill-opacity="0.501961" points="6,29 6,173 -16,98" />
<polygon fill="#ffffe8" fill-opacity="0.501961" points="59,64 14,77 103,77" />
<polygon fill="#fffff4" fill-opacity="0.501961" points="158,56 268,15 264,56" />
<polygon fill="#a7adad" fill-opacity="0.501961" points="33,28 7,21 50,19" />
<polygon fill="#d0bda1" fill-opacity="0.501961" points="39,69 127,68 87,55" />
<polygon fill="#000001" fill-opacity="0.501961" points="257,5 258,-16 216,-11" />
<polygon fill="#fafedf" fill-opacity="0.501961" points="151,73 196,86 244,73" />
<polygon fill="#bbc0bd" fill-opacity="0.501961" points="52,43 76,34 23,35" />
<polygon fill="#b1d3a0" fill-opacity="0.501961" points="258,91 213,77 166,90" />
<polygon fill="#2c2f37" fill-opacity="0.501961" points="241,11 59,11 158,-16" />
<polygon fill="#cfd3d3" fill-opacity="0.501961" points="225,151 161,166 131,145" />
<polygon fill="#d5bca5" fill-opacity="0.501961" points="77,76 11,93 104,94" />
<polygon fill="#ffffff" fill-opacity="0.501961" points="45,38 102,54 -16,55" />
<polygon fill="#f7fafe" fill-opacity="0.501961" points="44,109 0,95 94,96" />
<polygon fill="#ffffff" fill-opacity="0.501961" points="120,162 119,120 -2,124" />
<polygon fill="#ffffff" fill-opacity="0.501961" points="160,103 188,96 138,95" />
<polygon fill="#f9fcff" fill-opacity="0.501961" points="-14,48 45,23 -16,23" />
<polygon fill="#ffffe0" fill-opacity="0.501961" points="270,37 257,83 238,77" />
<polygon fill="#b0ca84" fill-opacity="0.501961" points="177,53 167,49 186,48" />
<polygon fill="#7eca84" fill-opacity="0.501961" points="246,23 225,16 222,22" />
<polygon fill="#ffffff" fill-opacity="0.501961" points="271,173 170,121 263,119" />
<polygon fill="#ffffe6" fill-opacity="0.501961" points="130,65 80,75 139,79" />
<polygon fill="#fdffff" fill-opacity="0.501961" points="222,13 128,12 152,31" />
<polygon fill="#d3d7d6" fill-opacity="0.501961" points="181,99 260,122 234,99" />
<polygon fill="#dbdede" fill-opacity="0.501961" points="18,124 105,100 12,98" />
<polygon fill="#ffffff" fill-opacity="0.501961" points="48,173 -16,155 97,155" />
<polygon fill="#bcd6a7" fill-opacity="0.501961" points="143,78 143,96 199,79" />
<polygon fill="#d8c0a5" fill-opacity="0.501961" points="112,78 116,94 75,78" />
<polygon fill="#ffffff" fill-opacity="0.501961" points="178,23 260,53 271,24" />
<polygon fill="#c4c8c7" fill-opacity="0.501961" points="-1,30 38,41 25,30" />
<polygon fill="#9fa7a3" fill-opacity="0.501961" points="38,135 49,138 57,135" />
<polygon fill="#ffffff" fill-opacity="0.501961" points="95,40 42,57 -11,40" />
<polygon fill="#8c908d" fill-opacity="0.501961" points="6,20 26,21 13,24" />
<polygon fill="#c4b093" fill-opacity="0.501961" points="52,64 42,73 28,72" />
<polygon fill="#b7bcba" fill-opacity="0.501961" points="145,33 158,28 172,32" />
<polygon fill="#c1c5c5" fill-opacity="0.501961" points="88,150 70,156 50,149" />
<polygon fill="#c1d4ad" fill-opacity="0.501961" points="146,74 141,57 207,56" />
<polygon fill="#c1d7a5" fill-opacity="0.501961" points="228,57 188,68 257,69" />
<polygon fill="#fcfefe" fill-opacity="0.501961" points="128,12 144,73 39,14" />
<polygon fill="#ffffde" fill-opacity="0.501961" points="144,92 108,97 129,34" />
<polygon fill="#202531" fill-opacity="0.501961" points="80,4 65,-16 -6,1" />
<polygon fill="#ffffeb" fill-opacity="0.501961" points="48,69 92,71 69,78" />
<polygon fill="#ffffea" fill-opacity="0.501961" points="181,91 193,102 228,91" />
<polygon fill="#fffff5" fill-opacity="0.501961" points="0,74 27,73 11,78" />
<polygon fill="#9ca49f" fill-opacity="0.501961" points="74,138 63,135 75,135" />
<polygon fill="#9fa6a3" fill-opacity="0.501961" points="33,135 21,136 30,138" />
<polygon fill="#d2d6d4" fill-opacity="0.501961" points="173,142 152,135 194,136" />
<polygon fill="#ffffff" fill-opacity="0.501961" points="202,151 194,137 148,140" />
<polygon fill="#ffffd7" fill-opacity="0.501961" points="211,43 256,56 170,55" />
<polygon fill="#88a576" fill-opacity="0.501961" points="161,49 143,49 154,52" />
<polygon fill="#2d3137" fill-opacity="0.501961" points="114,-16 22,11 207,11" />
<polygon fill="#d7c1aa" fill-opacity="0.501961" points="62,79 6,78 11,92" />
<polygon fill="#bcc1be" fill-opacity="0.501961" points="196,136 212,134 214,139" />
<polygon fill="#bcda9a" fill-opacity="0.501961" points="148,95 183,95 164,87" />
<polygon fill="#848a88" fill-opacity="0.501961" points="51,22 37,24 44,21" />
<polygon fill="#ffffff" fill-opacity="0.501961" points="131,173 199,156 140,155" />
<polygon fill="#feffff" fill-opacity="0.501961" points="48,23 48,33 12,23" />
<polygon fill="#b4d0a2" fill-opacity="0.501961" points="245,87 214,79 242,78" />
<polygon fill="#777e84" fill-opacity="0.501961" points="17,3 21,10 23,2" />
<polygon fill="#dbdddc" fill-opacity="0.501961" points="244,100 148,99 136,128" />
<polygon fill="#c9cdcc" fill-opacity="0.501961" points="25,30 50,40 12,40" />
<polygon fill="#ffffff" fill-opacity="0.501961" points="264,45 160,49 223,26" />
<polygon fill="#ffffee" fill-opacity="0.501961" points="142,74 155,79 172,73" />
<polygon fill="#fbfeff" fill-opacity="0.501961" points="188,13 148,31 189,29" />
<polygon fill="#f0f1f0" fill-opacity="0.501961" points="121,27 142,105 142,31" />
<polygon fill="#c8cdca" fill-opacity="0.501961" points="-16,133 18,136 -13,142" />
<polygon fill="#ffffff" fill-opacity="0.501961" points="180,120 260,160 269,121" />
<polygon fill="#ffffff" fill-opacity="0.501961" points="63,99 99,99 81,94" />
<polygon fill="#c6cac9" fill-opacity="0.501961" points="195,32 181,29 167,34" />
<polygon fill="#ffffff" fill-opacity="0.501961" points="6,146 -7,131 37,145" />
<polygon fill="#ffffff" fill-opacity="0.501961" points="104,137 61,150 19,138" />
<polygon fill="#ffffff" fill-opacity="0.501961" points="188,145 134,146 160,138" />
<polygon fill="#fffff3" fill-opacity="0.501961" points="252,130 254,53 271,102" />
<polygon fill="#ffffff" fill-opacity="0.501961" points="49,20 16,19 34,12" />
<polygon fill="#d5c7ad" fill-opacity="0.501961" points="104,55 115,68 62,69" />
<polygon fill="#bdc3c0" fill-opacity="0.501961" points="202,155 189,151 217,150" />
<polygon fill="#f2f3f5" fill-opacity="0.501961" points="8,150 5,13 -16,95" />
<polygon fill="#ffffff" fill-opacity="0.501961" points="109,28 24,51 121,55" />
<polygon fill="#d6ccb0" fill-opacity="0.501961" points="53,70 10,56 104,56" />
<polygon fill="#a1a5a3" fill-opacity="0.501961" points="63,137 67,135 58,135" />
<polygon fill="#a6b2b1" fill-opacity="0.501961" points="227,7 229,4 232,5" />
</g>
</svg>